<svg width="24" height="24" viewBox="0 0 24 24" fill="none" xmlns="http://www.w3.org/2000/svg">
<g id="ico">
<path id="Vector" d="M22.571 19.8211L20.9691 21.4227C15.5131 25.9916 8.58605 19.1884 8.51621 19.1186L4.89338 15.4922C4.82354 15.4224 -1.98126 8.49704 2.56255 3.06409L4.19064 1.43638C4.40452 1.22255 4.75371 1.06109 5.09417 1.01309C5.15964 1.00436 5.22511 1 5.28622 1C5.53938 1 5.74453 1.06982 5.86238 1.18764L9.24951 5.09326C9.65544 5.4991 9.65544 6.15803 9.24951 6.56387L8.01425 7.79883C7.71308 8.12611 7.49484 8.43594 7.35953 8.74577C7.0889 9.48326 6.66115 11.4208 8.51621 13.4194L10.5982 15.501C12.5886 17.3469 14.5179 16.9192 15.2817 16.6356C15.5655 16.509 15.8754 16.2952 16.2158 15.981L17.438 14.7547C17.8308 14.362 18.4943 14.3402 18.9308 14.7766L22.798 18.1323C23.2069 18.5632 22.925 19.4743 22.571 19.8211Z" stroke="#3C8F8B" stroke-width="2" stroke-miterlimit="10"/>
</g>
</svg>
