<svg width="31" height="33" viewBox="0 0 31 33" fill="none" xmlns="http://www.w3.org/2000/svg">
<path id="Vector" d="M26.8816 16.5C26.8816 15.5391 26.7527 14.6176 26.5401 13.7225L30 11.149L27.2875 6.34437L23.3766 8.11486C22.0687 6.83142 20.4579 5.86391 18.6667 5.33737L18.2157 1H12.7843L12.3333 5.33737C10.5421 5.86391 8.93135 6.83142 7.62342 8.11486L3.71251 6.34437L1 11.149L4.4599 13.7225C4.24728 14.611 4.11842 15.5391 4.11842 16.5C4.11842 17.4609 4.24728 18.3824 4.4599 19.2775L1 21.851L3.71251 26.6556L7.62342 24.8851C8.93135 26.1686 10.5421 27.1361 12.3333 27.6626L12.7843 32H18.2157L18.6667 27.6626C20.4579 27.1361 22.0687 26.1686 23.3766 24.8851L27.2875 26.6556L30 21.851L26.5401 19.2775C26.7527 18.389 26.8816 17.4609 26.8816 16.5ZM15.5032 21.4363C12.8358 21.4363 10.671 19.2248 10.671 16.5C10.671 13.7752 12.8358 11.5637 15.5032 11.5637C18.1706 11.5637 20.3355 13.7752 20.3355 16.5C20.3355 19.2248 18.1706 21.4363 15.5032 21.4363Z" stroke="white" stroke-width="2" stroke-linecap="round" stroke-linejoin="round"/>
</svg>
