<svg width="30" height="30" viewBox="0 0 30 30" fill="none" xmlns="http://www.w3.org/2000/svg">
<path d="M14.9997 1C10.7561 1 6.78463 2.90593 4.10429 6.22941C4.09164 6.24627 4.07899 6.26012 4.06815 6.27096L4.0543 6.29686L4.03684 6.31854C2.05022 8.82304 1 11.825 1 15.0003C1 18.1756 2.05022 21.1764 4.03684 23.6803L4.05491 23.7031C4.05491 23.7031 4.06996 23.7314 4.07056 23.7333C4.08201 23.7453 4.09646 23.7604 4.11031 23.779C6.79065 27.0965 10.7591 29 14.9997 29C19.2403 29 23.2099 27.0965 25.8903 23.7772C25.9047 23.7585 25.9186 23.7441 25.93 23.732C25.9312 23.7296 25.9463 23.7013 25.9463 23.7013L25.9632 23.6803C27.9498 21.1764 29 18.175 29 15.0003C29 11.8256 27.9498 8.82304 25.9626 6.31914L25.9451 6.29746L25.9391 6.28602C25.9324 6.27879 25.9258 6.27036 25.9192 6.26193C23.2376 2.91797 19.2584 1 14.9997 1ZM14.9997 8.30155C13.4912 8.30155 12.0038 8.18472 10.5796 7.95469L10.237 7.89928L10.3406 7.56808C11.4094 4.13921 13.1943 2.00927 14.9997 2.00927C16.8051 2.00927 18.59 4.13921 19.6588 7.56808L19.7624 7.89928L19.4198 7.95469C17.9956 8.18472 16.5082 8.30155 14.9997 8.30155ZM20.6476 7.43259C20.1087 5.66757 19.3704 4.15668 18.5129 3.0619L17.9179 2.30314L18.8387 2.58858C20.9367 3.23894 22.8601 4.4391 24.4017 6.0602L24.6925 6.36551L24.3089 6.54135C23.3527 6.97974 22.2404 7.34828 21.0035 7.63793L20.7295 7.70177L20.647 7.43259H20.6476ZM8.99587 7.63793C7.75897 7.34888 6.64673 6.97974 5.69045 6.54135L5.30686 6.36551L5.59772 6.0602C7.13932 4.4391 9.06332 3.23894 11.1607 2.58858L12.0815 2.30314L11.4871 3.0619C10.6296 4.15668 9.89133 5.66757 9.35237 7.43259L9.26987 7.70177L8.99587 7.63793ZM2.05022 14.1753C2.20619 11.7105 3.05889 9.35357 4.51558 7.35972L4.66492 7.15498L4.89195 7.26759C6.0072 7.81979 7.29589 8.27023 8.72308 8.60686L9.01333 8.67551L8.9477 8.96636C8.57976 10.5959 8.36839 12.3579 8.32021 14.2024L8.31239 14.4957H2.03035L2.05082 14.1753H2.05022ZM21.6792 14.2024C21.631 12.3585 21.4202 10.5971 21.0517 8.96636L20.9861 8.67551L21.2763 8.60686C22.7029 8.27023 23.9916 7.81979 25.1074 7.26759L25.3345 7.15498L25.4838 7.35972C26.9405 9.35357 27.7932 11.7099 27.9492 14.1753L27.9697 14.4957H21.6864L21.6786 14.2024H21.6792ZM14.9997 9.31082C16.6039 9.31082 18.1949 9.18014 19.7293 8.9218L20.0105 8.87423L20.0731 9.15244C20.4218 10.7073 20.6229 12.4007 20.6705 14.1867L20.6789 14.4957H9.32105L9.32948 14.1867C9.37706 12.4013 9.57819 10.7073 9.92686 9.15244L9.98948 8.87423L10.2707 8.9218C11.8051 9.18014 13.3961 9.31082 15.0003 9.31082H14.9997ZM25.1074 22.7318C23.9922 22.1802 22.7029 21.7292 21.2763 21.3931L20.9861 21.3245L21.0517 21.0336C21.4196 19.4029 21.631 17.6415 21.6792 15.7976L21.687 15.5043H27.9703L27.9498 15.8247C27.7938 18.2901 26.9411 20.6464 25.4844 22.6397L25.3351 22.8444L25.108 22.7318H25.1074ZM9.92686 20.8476C9.57819 19.2927 9.37706 17.5994 9.32948 15.8133L9.32105 15.5043H20.6789L20.6705 15.8133C20.6229 17.5987 20.4218 19.2927 20.0731 20.8476L20.0105 21.1258L19.7293 21.0782C18.1961 20.8199 16.6051 20.6892 14.9997 20.6892C13.3943 20.6892 11.8033 20.8199 10.2701 21.0782L9.98888 21.1258L9.92625 20.8476H9.92686ZM4.51558 22.6397C3.05889 20.6458 2.20619 18.2895 2.05022 15.8247L2.02974 15.5043H8.31239L8.32021 15.7976C8.36839 17.6421 8.57976 19.4035 8.9477 21.0336L9.01333 21.3245L8.72308 21.3931C7.29649 21.7298 6.0072 22.1802 4.89195 22.7318L4.66492 22.8444L4.51558 22.6397ZM14.9997 27.9913C13.1943 27.9913 11.4094 25.8614 10.3406 22.4325L10.237 22.1013L10.5796 22.0459C12.0038 21.8159 13.4906 21.6991 14.9997 21.6991C16.5088 21.6991 17.9956 21.8159 19.4198 22.0459L19.7624 22.1013L19.6588 22.4325C18.59 25.8614 16.8045 27.9913 14.9991 27.9913H14.9997ZM18.5129 26.9381C19.371 25.8433 20.1087 24.3318 20.6476 22.5674L20.7301 22.2982L21.0041 22.3621C22.2416 22.6511 23.3539 23.0203 24.3095 23.4587L24.6925 23.6345L24.4023 23.9398C22.8601 25.5609 20.9367 26.7611 18.8393 27.4114L17.9185 27.6969L18.5129 26.9381ZM11.1613 27.4114C9.06392 26.7611 7.13992 25.5609 5.59832 23.9398L5.30806 23.6345L5.69106 23.4587C6.64673 23.0203 7.75897 22.6511 8.99647 22.3621L9.27047 22.2982L9.35297 22.5674C9.89193 24.3318 10.6296 25.8433 11.4877 26.9381L12.0821 27.6969L11.1613 27.4114Z" fill="black" stroke="black" stroke-width="0.5"/>
</svg>
