<svg width="22" height="21" viewBox="0 0 22 21" fill="none" xmlns="http://www.w3.org/2000/svg">
<g id="Vector">
<path d="M17.4996 8.37932C17.0221 8.37932 16.6335 8.79908 16.6335 9.31504C16.6335 9.831 17.0221 10.2508 17.4996 10.2508C17.9772 10.2508 18.3657 9.831 18.3657 9.31504C18.3576 8.79908 17.9772 8.37932 17.4996 8.37932Z" fill="#222222"/>
<path d="M4.5894 8.37932C4.11184 8.37932 3.72332 8.79908 3.72332 9.31504C3.72332 9.831 4.11184 10.2508 4.5894 10.2508C5.06695 10.2508 5.45547 9.831 5.45547 9.31504C5.45547 8.79908 5.06695 8.37932 4.5894 8.37932Z" fill="#222222"/>
<path d="M12.3031 8.37932C11.8256 8.37932 11.4371 8.79908 11.4371 9.31504C11.4371 9.831 11.8256 10.2508 12.3031 10.2508C12.7807 10.2508 13.1692 9.831 13.1692 9.31504C13.1692 8.79908 12.7888 8.37932 12.3031 8.37932Z" fill="#222222"/>
<path d="M18.5276 0.5H3.4724C1.55408 0.5 0 2.1878 0 4.26913V13.2066C0 15.2879 1.55408 16.9757 3.4724 16.9757H8.66077L10.4334 20.089C10.4334 20.089 10.4496 20.124 10.4901 20.1764C10.5953 20.3688 10.7814 20.5 11 20.5C11.2185 20.5 11.4047 20.3688 11.5099 20.1852C11.5504 20.1327 11.5666 20.089 11.5666 20.089L13.3392 16.9757H18.5276C20.4459 16.9757 22 15.2879 22 13.2066V4.26913C22.0081 2.1878 20.4459 0.5 18.5276 0.5ZM4.88888 11.5275C4.07946 11.5275 3.7557 10.8979 3.7557 10.8979V11.3701H2.39588V5.31854H3.73951V7.62724C4.28182 7.05007 4.88079 7.05007 4.88079 7.05007C6.71007 7.05007 6.78292 9.27132 6.78292 9.27132C6.78292 11.4576 4.88888 11.5275 4.88888 11.5275ZM9.13023 7.46108V11.3789H7.83516V7.7934C7.83516 6.56034 7.22 6.58658 7.22 6.58658V5.18736C9.18689 5.17862 9.13023 7.46108 9.13023 7.46108ZM14.5857 9.31504C14.5857 11.5275 12.3112 11.5275 12.3112 11.5275C10.0125 11.5275 10.0853 9.31504 10.0853 9.31504C10.0853 7.06756 12.3112 7.06756 12.3112 7.06756C14.6586 7.06756 14.5857 9.31504 14.5857 9.31504ZM19.6122 11.3264C19.6122 13.6264 17.6453 13.6001 17.6453 13.6001H17.1192V12.3059H17.4429C18.3981 12.3059 18.3009 11.239 18.3009 11.239V10.9066C17.88 11.4926 17.1192 11.4576 17.1192 11.4576C15.2413 11.4576 15.2656 9.29755 15.2656 9.29755C15.2656 6.98011 17.1677 7.06756 17.1677 7.06756C17.9124 7.06756 18.3009 7.6185 18.3009 7.6185V7.20748H19.6122V11.3264Z" fill="#222222"/>
</g>
</svg>
