<svg width="21" height="21" viewBox="0 0 21 21" fill="none" xmlns="http://www.w3.org/2000/svg">
<g id="Vector">
<path d="M10.4954 1.89152C13.2975 1.89152 13.6288 1.90072 14.7377 1.95135C15.7592 1.99737 16.316 2.16765 16.6887 2.31492C17.1764 2.50362 17.5261 2.73373 17.8942 3.10191C18.2623 3.47009 18.4877 3.81986 18.681 4.30769C18.8236 4.67587 18.9939 5.23274 19.0445 6.25904C19.0951 7.36818 19.1043 7.69954 19.1043 10.5023C19.1043 13.3051 19.0951 13.6364 19.0445 14.7456C18.9985 15.7673 18.8282 16.3241 18.681 16.6969C18.4923 17.1847 18.2623 17.5345 17.8942 17.9027C17.5261 18.2709 17.1764 18.4964 16.6887 18.6897C16.3206 18.8323 15.7638 19.0026 14.7377 19.0533C13.6288 19.1039 13.2975 19.1131 10.4954 19.1131C7.69325 19.1131 7.36196 19.1039 6.25307 19.0533C5.2316 19.0072 4.67485 18.837 4.30215 18.6897C3.81442 18.501 3.46472 18.2709 3.09663 17.9027C2.72853 17.5345 2.50307 17.1847 2.30982 16.6969C2.16718 16.3287 1.99693 15.7719 1.94632 14.7456C1.89571 13.6364 1.8865 13.3051 1.8865 10.5023C1.8865 7.69954 1.89571 7.36818 1.94632 6.25904C1.99233 5.23734 2.16258 4.68047 2.30982 4.30769C2.49847 3.81986 2.72853 3.47009 3.09663 3.10191C3.46472 2.73373 3.81442 2.50822 4.30215 2.31492C4.67025 2.17226 5.22699 2.00197 6.25307 1.95135C7.36196 1.90072 7.69325 1.89152 10.4954 1.89152ZM10.4954 0C7.64264 0 7.28834 0.0138067 6.16564 0.0644313C5.04755 0.115056 4.28374 0.294543 3.61656 0.552268C2.92638 0.819198 2.34202 1.17817 1.75767 1.76266C1.17791 2.34714 0.819018 2.93162 0.552147 3.62196C0.294479 4.28928 0.115031 5.05326 0.0644172 6.1716C0.0138037 7.28994 0 7.64892 0 10.4977C0 13.3511 0.0138037 13.7055 0.0644172 14.8284C0.115031 15.9467 0.294479 16.7107 0.552147 17.378C0.819018 18.0684 1.17791 18.6529 1.76227 19.2373C2.34663 19.8218 2.93098 20.1808 3.62117 20.4477C4.28834 20.7055 5.05215 20.8849 6.17025 20.9356C7.28834 20.9862 7.64724 21 10.5 21C13.3528 21 13.7071 20.9862 14.8298 20.9356C15.9479 20.8849 16.7117 20.7055 17.3788 20.4477C18.069 20.1808 18.6534 19.8218 19.2377 19.2373C19.8221 18.6529 20.181 18.0684 20.4479 17.378C20.7055 16.7107 20.885 15.9467 20.9356 14.8284C20.9862 13.7101 21 13.3511 21 10.4977C21 7.64431 20.9862 7.28994 20.9356 6.167C20.885 5.04865 20.7055 4.28468 20.4479 3.61736C20.181 2.92702 19.8221 2.34254 19.2377 1.75805C18.6534 1.17357 18.069 0.814596 17.3788 0.547666C16.7117 0.289941 15.9479 0.110454 14.8298 0.0598291C13.7071 0.0138067 13.3482 0 10.4954 0Z" fill="#222222"/>
<path d="M10.4954 5.10848C7.51841 5.10848 5.10736 7.52005 5.10736 10.4977C5.10736 13.4753 7.52301 15.8915 10.5 15.8915C13.477 15.8915 15.8926 13.4799 15.8926 10.4977C15.888 7.52005 13.4724 5.10848 10.4954 5.10848ZM10.4954 14C8.56288 14 6.99847 12.4352 6.99847 10.5023C6.99847 8.56936 8.56288 7.0046 10.4954 7.0046C12.4279 7.0046 13.9923 8.56936 13.9923 10.5023C13.9969 12.4306 12.4279 14 10.4954 14Z" fill="#222222"/>
<path d="M17.3604 4.89678C17.3604 5.59172 16.7945 6.15779 16.0997 6.15779C15.4049 6.15779 14.839 5.59172 14.839 4.89678C14.839 4.20184 15.4049 3.63577 16.0997 3.63577C16.7945 3.63577 17.3604 4.19724 17.3604 4.89678Z" fill="#222222"/>
</g>
</svg>
