<svg width="327" height="22" viewBox="0 0 327 22" fill="none" xmlns="http://www.w3.org/2000/svg">
<path d="M2.94232 3.81478C3.51249 3.07402 4.45972 2.69797 5.75861 2.69797C7.92038 2.69797 9.04344 3.65715 9.19285 5.63321C9.21114 5.83823 9.26704 5.96908 9.36359 6.03398C9.451 6.09374 9.59633 6.12053 9.81993 6.12053H10.6645C10.8901 6.12053 11.0436 6.08138 11.132 6.00204C11.2245 5.91859 11.2692 5.77951 11.2692 5.57757C11.2692 4.27737 10.884 3.19559 10.1259 2.36416C9.25789 1.35862 7.82688 0.848633 5.87346 0.848633C4.52274 0.848633 3.38037 1.12578 2.47887 1.67285C1.5733 2.22198 0.902515 3.04105 0.485813 4.10635C0.316084 4.54318 0.191073 5.04904 0.114847 5.61054C0.0386213 6.16792 0 6.89632 0 7.77514V11.5686C0 12.432 0.0386213 13.149 0.114847 13.6992C0.192089 14.2514 0.316084 14.7614 0.48683 15.2168C0.919793 16.2522 1.5916 17.028 2.48293 17.5225C3.36817 18.015 4.44854 18.2643 5.69154 18.2643C7.56669 18.2643 9.04141 17.7409 10.076 16.7076C10.4501 16.3284 10.7458 15.8494 10.9552 15.2827C11.1635 14.7181 11.2692 14.1072 11.2692 13.4653C11.2692 13.2624 11.2245 13.1233 11.132 13.0409C11.0436 12.9615 10.8901 12.9224 10.6645 12.9224H9.86567C9.64207 12.9224 9.49775 12.9502 9.40933 13.0089C9.31277 13.0749 9.25687 13.2057 9.23858 13.4107C9.0597 15.4167 7.91428 16.3913 5.73625 16.3913C4.45261 16.3913 3.51249 16.0163 2.94232 15.2745C2.36605 14.5255 2.07436 13.2943 2.07436 11.615V7.49903C2.07436 5.80423 2.36605 4.56482 2.94232 3.81684V3.81478Z" fill="#494746"/>
<path d="M18.4518 5.24274C16.8612 5.24274 15.6294 5.75684 14.7909 6.77166C13.9575 7.78029 13.5347 9.24637 13.5347 11.1287V12.8636C13.5347 14.5636 13.9626 15.8947 14.8051 16.8199C15.6507 17.7471 16.8693 18.218 18.4284 18.218C19.213 18.218 19.9427 18.0912 20.5973 17.8409C21.2559 17.5895 21.7874 17.2382 22.1787 16.7941C22.3972 16.5417 22.5934 16.2378 22.7641 15.8926C22.9399 15.5351 23.0263 15.2477 23.0263 15.0138C23.0263 14.8006 22.9816 14.6738 22.8871 14.613C22.8068 14.5626 22.6635 14.5399 22.4216 14.5399H21.6004C21.4063 14.5399 21.2823 14.5646 21.2101 14.6172C21.1623 14.6522 21.0922 14.7274 20.9814 14.9963C20.5698 15.9658 19.7567 16.4366 18.4975 16.4366C16.5095 16.4366 15.543 15.2219 15.543 12.7246V12.3897H22.6726C22.883 12.3897 23.0284 12.3506 23.1168 12.2712C23.2093 12.1878 23.254 12.0415 23.254 11.8231V10.6434C23.254 7.06013 21.638 5.24274 18.4518 5.24274ZM18.4518 6.88499C19.401 6.88499 20.1064 7.19716 20.5475 7.81326C20.9845 8.42318 21.2121 9.38648 21.2233 10.6774H15.544C15.5836 8.12543 16.5359 6.88499 18.4518 6.88499Z" fill="#494746"/>
<path d="M27.1425 1.2185H26.2979C26.0876 1.2185 25.9422 1.25765 25.8538 1.33698C25.7613 1.42043 25.7166 1.56673 25.7166 1.78515V17.3268C25.7166 17.5452 25.7613 17.6925 25.8538 17.7749C25.9422 17.8553 26.0876 17.8945 26.299 17.8945H27.1435C27.3539 17.8945 27.4993 17.8553 27.5877 17.776C27.6802 17.6925 27.7249 17.5462 27.7249 17.3278V1.78515C27.7249 1.56673 27.6802 1.42043 27.5877 1.33698C27.4993 1.25765 27.3529 1.2185 27.1425 1.2185Z" fill="#494746"/>
<path d="M35.1605 5.24274C33.5699 5.24274 32.3381 5.75684 31.4996 6.77166C30.6662 7.78029 30.2434 9.24637 30.2434 11.1287V12.8636C30.2434 14.5636 30.6713 15.8947 31.5138 16.8199C32.3594 17.7471 33.578 18.218 35.1371 18.218C35.9217 18.218 36.6525 18.0912 37.306 17.8409C37.9646 17.5895 38.4961 17.2382 38.8874 16.7941C39.1059 16.5417 39.3021 16.2378 39.4728 15.8926C39.6487 15.5351 39.735 15.2477 39.735 15.0138C39.735 14.8006 39.6903 14.6738 39.5958 14.613C39.5155 14.5626 39.3722 14.5399 39.1303 14.5399H38.3091C38.115 14.5399 37.991 14.5646 37.9178 14.6172C37.87 14.6522 37.7999 14.7274 37.6891 14.9963C37.2775 15.9658 36.4644 16.4366 35.2052 16.4366C33.2172 16.4366 32.2507 15.2219 32.2507 12.7246V12.3897H39.3803C39.5907 12.3897 39.7361 12.3506 39.8255 12.2712C39.918 12.1888 39.9627 12.0415 39.9627 11.8231V10.6434C39.9627 7.06013 38.3467 5.24274 35.1605 5.24274ZM35.1605 6.88499C36.1097 6.88499 36.8151 7.19716 37.2562 7.81326C37.6932 8.42318 37.9209 9.38648 37.932 10.6774H32.2537C32.2934 8.12543 33.2436 6.88499 35.1605 6.88499Z" fill="#494746"/>
<path d="M47.5335 5.24274C46.1319 5.24274 45.0322 5.66618 44.2598 6.50276V1.78515C44.2598 1.56673 44.2151 1.42043 44.1226 1.33698C44.0332 1.25765 43.8878 1.2185 43.6785 1.2185H42.8339C42.6235 1.2185 42.4782 1.25765 42.3897 1.33698C42.2973 1.42043 42.2525 1.56673 42.2525 1.78515V13.3025C42.2525 14.8665 42.6967 16.0905 43.5728 16.9394C44.4478 17.7873 45.6959 18.2169 47.2824 18.2169C48.8689 18.2169 50.116 17.7512 50.984 16.8322C51.8509 15.9143 52.29 14.61 52.29 12.9564V10.3889C52.29 8.73535 51.8773 7.45061 51.0642 6.57075C50.2491 5.68987 49.062 5.24274 47.5335 5.24274ZM47.259 7.02304C49.2928 7.02304 50.2817 8.24494 50.2817 10.7578V12.7009C50.2817 15.2137 49.2999 16.4356 47.2814 16.4356C45.2477 16.4356 44.2588 15.2137 44.2588 12.7009V10.7578C44.2588 9.53896 44.5159 8.60039 45.0231 7.9678C45.5241 7.3414 46.2773 7.02304 47.259 7.02304Z" fill="#494746"/>
<path d="M60.3018 5.56624H60.005C59.257 5.56624 58.573 5.77848 57.9734 6.1978C57.4947 6.5316 57.1085 6.95401 56.8229 7.45576V6.13289C56.8229 5.91447 56.7781 5.76817 56.6857 5.68472C56.5972 5.60539 56.4519 5.56624 56.2405 5.56624H55.4416C55.2313 5.56624 55.0849 5.60539 54.9965 5.68472C54.904 5.76817 54.8593 5.91447 54.8593 6.13289V17.3257C54.8593 17.5442 54.904 17.6915 54.9965 17.7739C55.0849 17.8543 55.2302 17.8934 55.4416 17.8934H56.2852C56.4956 17.8934 56.6409 17.8543 56.7304 17.7749C56.8229 17.6915 56.8676 17.5452 56.8676 17.3268V11.4295C56.8676 10.8711 56.9357 10.3477 57.0688 9.8738C57.202 9.40194 57.3961 8.98468 57.6461 8.63439C57.8941 8.28615 58.1939 8.0121 58.5364 7.82047C58.8769 7.62987 59.2702 7.53303 59.7072 7.53303H60.3008C60.5041 7.53303 60.6352 7.48872 60.7022 7.39909C60.7632 7.31667 60.7907 7.17964 60.7907 6.96638V6.13392C60.7907 5.92168 60.7622 5.78363 60.7022 5.70121C60.6342 5.60951 60.5071 5.56727 60.3008 5.56727L60.3018 5.56624Z" fill="#494746"/>
<path d="M66.9406 5.24274C66.035 5.24274 65.2707 5.36122 64.668 5.59612C64.0613 5.83308 63.549 6.19265 63.1435 6.66657C62.9565 6.88808 62.798 7.13225 62.6729 7.39394C62.5449 7.66181 62.4798 7.91423 62.4798 8.14501C62.4798 8.34797 62.5246 8.48706 62.617 8.56948C62.7055 8.64984 62.8589 8.68899 63.0846 8.68899H63.9058C64.1243 8.68899 64.2523 8.65808 64.3204 8.58905C64.356 8.55299 64.415 8.47778 64.5247 8.23258C64.727 7.74835 65.0075 7.40321 65.3581 7.20746C65.7138 7.00862 66.2454 6.90868 66.9396 6.90868C67.7902 6.90868 68.4072 7.09001 68.773 7.44648C69.1379 7.80193 69.3229 8.39536 69.3229 9.21031V10.4569C68.893 10.4034 68.4539 10.3611 68.0179 10.3323C67.5463 10.3014 67.153 10.2859 66.8481 10.2859C65.1742 10.2859 63.9241 10.6125 63.1333 11.2575C62.3355 11.9076 61.932 12.9461 61.932 14.3452C61.932 15.668 62.3172 16.6406 63.0785 17.2371C63.8306 17.8275 65.0075 18.1263 66.5747 18.1263H66.9172C68.4438 18.1263 69.5729 17.778 70.2742 17.0908C70.9755 16.4026 71.3322 15.3311 71.3322 13.9052V9.16394C71.3322 7.78235 70.9826 6.77166 70.2935 6.15968C69.6085 5.55182 68.4803 5.24274 66.9406 5.24274ZM66.9182 16.3666H66.7129C65.6925 16.3666 64.9729 16.2028 64.5755 15.8803C64.1853 15.564 63.9871 15.0385 63.9871 14.3194C63.9871 13.4931 64.2005 12.8976 64.6223 12.5504C65.0502 12.1981 65.846 12.0188 66.9873 12.0188C67.2587 12.0188 67.6205 12.0384 68.0626 12.0765C68.4803 12.1126 68.9052 12.1589 69.3259 12.2146V13.6961C69.3259 14.6367 69.1389 15.325 68.77 15.7433C68.4041 16.1574 67.7821 16.3676 66.9192 16.3676L66.9182 16.3666Z" fill="#494746"/>
<path d="M79.3715 16.0657H78.2993C77.8632 16.0657 77.5492 15.9431 77.3652 15.701C77.1752 15.4517 77.0786 15.0179 77.0786 14.4121V7.30019H79.3258C79.529 7.30019 79.6601 7.25691 79.7272 7.16625C79.7882 7.08383 79.8167 6.9468 79.8167 6.73354V6.13186C79.8167 5.91859 79.7882 5.78157 79.7272 5.69915C79.6601 5.60745 79.5321 5.56521 79.3258 5.56521H77.0786V2.73197C77.0786 2.51355 77.0339 2.36725 76.9414 2.2838C76.852 2.20447 76.7077 2.16532 76.4973 2.16532H75.6527C75.4423 2.16532 75.297 2.20447 75.2075 2.2838C75.115 2.36725 75.0703 2.51355 75.0703 2.73197V5.56521H73.6901C73.4838 5.56521 73.3558 5.60745 73.2887 5.69915C73.2277 5.78157 73.2003 5.91859 73.2003 6.13186V6.73354C73.2003 6.94577 73.2287 7.08383 73.2887 7.16625C73.3558 7.25588 73.4869 7.30019 73.6901 7.30019H75.0703V14.713C75.0703 15.7999 75.3183 16.6097 75.8072 17.1207C76.2971 17.6328 77.0817 17.8924 78.1397 17.8924H79.3715C79.5748 17.8924 79.7059 17.8481 79.773 17.7585C79.8339 17.676 79.8624 17.539 79.8624 17.3257V16.6324C79.8624 16.4201 79.8339 16.2821 79.773 16.1997C79.7059 16.11 79.5748 16.0657 79.3715 16.0657Z" fill="#494746"/>
<path d="M86.4544 5.24274C84.8638 5.24274 83.632 5.75684 82.7935 6.77166C81.9601 7.78029 81.5373 9.24637 81.5373 11.1287V12.8636C81.5373 14.5636 81.9652 15.8947 82.8078 16.8199C83.6534 17.7471 84.872 18.218 86.431 18.218C87.2157 18.218 87.9454 18.0912 88.5999 17.8409C89.2585 17.5895 89.7901 17.2382 90.1814 16.7941C90.3989 16.5417 90.596 16.2378 90.7658 15.8926C90.9416 15.5351 91.028 15.2477 91.028 15.0138C91.028 14.8006 90.9833 14.6738 90.8887 14.613C90.8084 14.5626 90.6651 14.5399 90.4232 14.5399H89.602C89.4089 14.5399 89.2839 14.5646 89.2118 14.6172C89.164 14.6522 89.0939 14.7274 88.9831 14.9963C88.5715 15.9658 87.7584 16.4366 86.4991 16.4366C84.5112 16.4366 83.5446 15.2219 83.5446 12.7246V12.3897H90.6743C90.8847 12.3897 91.03 12.3506 91.1184 12.2712C91.2109 12.1878 91.2556 12.0415 91.2556 11.8231V10.6434C91.2556 7.06013 89.6407 5.24274 86.4544 5.24274ZM86.4544 6.88499C87.4037 6.88499 88.109 7.19716 88.5501 7.81326C88.9871 8.42318 89.2148 9.38648 89.226 10.6774H83.5467C83.5863 8.12543 84.5386 6.88499 86.4544 6.88499Z" fill="#494746"/>
<path d="M104.502 5.24274C103.1 5.24274 102 5.66618 101.228 6.50276V1.78515C101.228 1.56673 101.183 1.42043 101.091 1.33698C101.001 1.25765 100.857 1.2185 100.647 1.2185H99.8021C99.5917 1.2185 99.4464 1.25765 99.3569 1.33698C99.2644 1.42043 99.2197 1.56673 99.2197 1.78515V13.3025C99.2197 14.8665 99.6639 16.0905 100.541 16.9394C101.416 17.7873 102.664 18.2169 104.251 18.2169C105.837 18.2169 107.084 17.7512 107.952 16.8322C108.819 15.9143 109.258 14.61 109.258 12.9564V10.3889C109.258 8.73535 108.846 7.45061 108.032 6.57075C107.217 5.68987 106.03 5.24274 104.502 5.24274ZM104.228 7.02304C106.262 7.02304 107.251 8.24494 107.251 10.7578V12.7009C107.251 15.2137 106.269 16.4356 104.251 16.4356C102.217 16.4356 101.228 15.2137 101.228 12.7009V10.7578C101.228 9.53896 101.485 8.60039 101.992 7.9678C102.494 7.3414 103.246 7.02304 104.228 7.02304Z" fill="#494746"/>
<path d="M116.407 5.24274C115.502 5.24274 114.737 5.36122 114.135 5.59612C113.528 5.83308 113.016 6.19265 112.61 6.66657C112.423 6.88808 112.265 7.13225 112.139 7.39394C112.011 7.66181 111.946 7.91423 111.946 8.14501C111.946 8.34797 111.991 8.48706 112.084 8.56948C112.172 8.64984 112.325 8.68899 112.551 8.68899H113.372C113.591 8.68899 113.719 8.65808 113.787 8.58905C113.823 8.55299 113.882 8.47778 113.991 8.23258C114.194 7.74835 114.474 7.40321 114.825 7.20746C115.18 7.00862 115.712 6.90868 116.406 6.90868C117.257 6.90868 117.874 7.09001 118.24 7.44648C118.604 7.80193 118.789 8.39536 118.789 9.21031V10.4569C118.36 10.4034 117.92 10.3611 117.484 10.3323C117.013 10.3014 116.62 10.2859 116.315 10.2859C114.641 10.2859 113.391 10.6125 112.6 11.2575C111.802 11.9076 111.399 12.9461 111.399 14.3452C111.399 15.668 111.784 16.6406 112.545 17.2371C113.297 17.8275 114.474 18.1263 116.041 18.1263H116.384C117.91 18.1263 119.039 17.778 119.741 17.0908C120.442 16.4026 120.799 15.3311 120.799 13.9052V9.16394C120.799 7.78235 120.449 6.77166 119.76 6.15968C119.075 5.55182 117.947 5.24274 116.407 5.24274ZM116.385 16.3666H116.179C115.159 16.3666 114.439 16.2028 114.042 15.8803C113.652 15.564 113.454 15.0385 113.454 14.3194C113.454 13.4931 113.667 12.8976 114.089 12.5504C114.517 12.1981 115.313 12.0188 116.454 12.0188C116.725 12.0188 117.087 12.0384 117.529 12.0765C117.947 12.1126 118.372 12.1589 118.792 12.2146V13.6961C118.792 14.6367 118.605 15.325 118.237 15.7433C117.871 16.1574 117.249 16.3676 116.386 16.3676L116.385 16.3666Z" fill="#494746"/>
<path d="M128.673 5.24274C127.272 5.24274 126.172 5.66618 125.4 6.50276V1.78515C125.4 1.56673 125.355 1.42043 125.263 1.33698C125.173 1.25765 125.029 1.2185 124.818 1.2185H123.974C123.763 1.2185 123.618 1.25765 123.529 1.33698C123.436 1.42043 123.391 1.56673 123.391 1.78515V13.3025C123.391 14.8665 123.836 16.0905 124.713 16.9394C125.588 17.7873 126.836 18.2169 128.422 18.2169C130.009 18.2169 131.256 17.7512 132.124 16.8322C132.991 15.9143 133.43 14.61 133.43 12.9564V10.3889C133.43 8.73535 133.017 7.45061 132.204 6.57075C131.389 5.68987 130.202 5.24274 128.673 5.24274ZM128.4 7.02304C130.434 7.02304 131.423 8.24494 131.423 10.7578V12.7009C131.423 15.2137 130.441 16.4356 128.422 16.4356C126.389 16.4356 125.4 15.2137 125.4 12.7009V10.7578C125.4 9.53896 125.657 8.60039 126.164 7.9678C126.666 7.3414 127.418 7.02304 128.4 7.02304Z" fill="#494746"/>
<path d="M137.355 5.56624H136.51C136.3 5.56624 136.155 5.60539 136.066 5.68472C135.974 5.76817 135.929 5.91447 135.929 6.13289V17.3257C135.929 17.5442 135.974 17.6915 136.066 17.7739C136.155 17.8543 136.3 17.8934 136.511 17.8934H137.356C137.566 17.8934 137.712 17.8543 137.801 17.7739C137.894 17.6905 137.938 17.5442 137.938 17.3257V6.13289C137.938 5.91447 137.894 5.76817 137.801 5.68472C137.713 5.60436 137.566 5.56624 137.355 5.56624Z" fill="#494746"/>
<path d="M136.944 0.986689C136.57 0.986689 136.268 1.08869 136.044 1.29062C135.816 1.49564 135.701 1.77072 135.701 2.10865V2.47852C135.701 2.8319 135.816 3.11523 136.044 3.31922C136.268 3.52115 136.57 3.62315 136.944 3.62315C137.334 3.62315 137.648 3.52115 137.878 3.32128C138.114 3.11626 138.234 2.83293 138.234 2.47852V2.10865C138.234 1.76969 138.114 1.49461 137.878 1.28959C137.648 1.08869 137.334 0.986689 136.944 0.986689Z" fill="#494746"/>
<path d="M145.281 5.24274C143.691 5.24274 142.459 5.75684 141.621 6.77166C140.787 7.78029 140.364 9.24637 140.364 11.1287V12.8636C140.364 14.5636 140.792 15.8947 141.635 16.8199C142.48 17.7471 143.699 18.218 145.258 18.218C146.043 18.218 146.772 18.0912 147.427 17.8409C148.086 17.5895 148.617 17.2382 149.008 16.7941C149.226 16.5417 149.423 16.2378 149.593 15.8926C149.769 15.5351 149.855 15.2477 149.855 15.0138C149.855 14.8006 149.81 14.6738 149.716 14.613C149.636 14.5626 149.492 14.5399 149.25 14.5399H148.429C148.236 14.5399 148.111 14.5646 148.039 14.6172C147.991 14.6522 147.921 14.7274 147.81 14.9963C147.399 15.9658 146.585 16.4366 145.326 16.4366C143.338 16.4366 142.372 15.2219 142.372 12.7246V12.3897H149.501C149.712 12.3897 149.857 12.3506 149.946 12.2712C150.038 12.1878 150.083 12.0415 150.083 11.8231V10.6434C150.083 7.06013 148.468 5.24274 145.281 5.24274ZM145.281 6.88499C146.231 6.88499 146.936 7.19716 147.377 7.81326C147.814 8.42318 148.042 9.38648 148.053 10.6774H142.374C142.413 8.12543 143.366 6.88499 145.281 6.88499Z" fill="#494746"/>
<path d="M158.369 11.0504L156.497 10.5641C156.062 10.458 155.695 10.3426 155.405 10.222C155.12 10.1036 154.887 9.96859 154.713 9.82229C154.544 9.67908 154.424 9.52145 154.354 9.35351C154.284 9.18146 154.249 8.97025 154.249 8.72299C154.249 8.1347 154.442 7.69169 154.837 7.37024C155.236 7.04777 155.809 6.88396 156.542 6.88396C158.156 6.88396 159.026 7.42279 159.201 8.53239C159.237 8.73329 159.294 8.85692 159.377 8.9208C159.459 8.98262 159.601 9.01147 159.826 9.01147H160.488C160.714 9.01147 160.867 8.97232 160.956 8.89298C161.048 8.80953 161.093 8.67148 161.093 8.46851C161.093 7.68757 160.806 7.00244 160.243 6.43167C159.511 5.64248 158.32 5.24274 156.7 5.24274C155.359 5.24274 154.285 5.56624 153.51 6.20295C152.727 6.84481 152.331 7.72363 152.331 8.81571V8.9311C152.331 9.78623 152.563 10.4827 153.019 11.0009C153.471 11.515 154.187 11.9106 155.146 12.1775L157.176 12.7091C157.914 12.9038 158.439 13.1624 158.736 13.4777C159.028 13.7878 159.175 14.2267 159.175 14.782C159.175 15.973 158.358 16.551 156.677 16.551C155.833 16.551 155.191 16.416 154.769 16.1502C154.354 15.8895 154.078 15.4599 153.949 14.8789C153.913 14.678 153.85 14.5502 153.757 14.4863C153.67 14.4286 153.528 14.3998 153.324 14.3998H152.662C152.437 14.3998 152.284 14.4389 152.195 14.5183C152.102 14.6017 152.057 14.7408 152.057 14.9427C152.057 15.7556 152.367 16.4655 152.979 17.0538C153.786 17.8254 155.046 18.2159 156.723 18.2159C159.682 18.2159 161.182 17.0136 161.182 14.6429V14.5275C161.182 12.6937 160.235 11.5233 158.367 11.0504H158.369Z" fill="#494746"/>
<path d="M174.361 16.0657H173.289C172.853 16.0657 172.539 15.9431 172.355 15.701C172.165 15.4517 172.068 15.0179 172.068 14.4121V7.30019H174.315C174.519 7.30019 174.65 7.25691 174.717 7.16625C174.778 7.08383 174.806 6.9468 174.806 6.73354V6.13186C174.806 5.91859 174.778 5.78157 174.717 5.69915C174.65 5.60745 174.522 5.56521 174.315 5.56521H172.068V2.73197C172.068 2.51355 172.024 2.36725 171.931 2.2838C171.842 2.20447 171.697 2.16532 171.487 2.16532H170.642C170.432 2.16532 170.287 2.20447 170.197 2.2838C170.105 2.36725 170.06 2.51355 170.06 2.73197V5.56521H168.68C168.473 5.56521 168.345 5.60745 168.278 5.69915C168.217 5.78157 168.19 5.91859 168.19 6.13186V6.73354C168.19 6.94577 168.218 7.08383 168.278 7.16625C168.345 7.25588 168.477 7.30019 168.68 7.30019H170.06V14.713C170.06 15.7999 170.308 16.6097 170.797 17.1207C171.287 17.6328 172.071 17.8924 173.129 17.8924H174.361C174.564 17.8924 174.696 17.8481 174.763 17.7585C174.824 17.676 174.852 17.539 174.852 17.3257V16.6324C174.852 16.4201 174.824 16.2821 174.763 16.1997C174.696 16.11 174.564 16.0657 174.361 16.0657Z" fill="#494746"/>
<path d="M182.491 5.24274C181.75 5.24274 181.068 5.38182 180.464 5.6569C179.947 5.89181 179.498 6.21428 179.126 6.61918V1.78515C179.126 1.56673 179.081 1.42043 178.989 1.33698C178.9 1.25765 178.755 1.2185 178.544 1.2185H177.7C177.489 1.2185 177.344 1.25765 177.256 1.33698C177.163 1.42043 177.119 1.56673 177.119 1.78515V17.3268C177.119 17.5452 177.163 17.6925 177.256 17.7749C177.344 17.8553 177.489 17.8945 177.701 17.8945H178.545C178.756 17.8945 178.901 17.8553 178.99 17.776C179.082 17.6925 179.127 17.5462 179.127 17.3278V10.2282C179.127 9.27315 179.39 8.49942 179.909 7.92865C180.427 7.35994 181.134 7.07147 182.012 7.07147C182.89 7.07147 183.533 7.28988 183.921 7.72054C184.312 8.15325 184.51 8.85795 184.51 9.81302V17.3288C184.51 17.5473 184.555 17.6946 184.648 17.777C184.736 17.8574 184.881 17.8965 185.093 17.8965H185.936C186.147 17.8965 186.292 17.8574 186.381 17.778C186.474 17.6946 186.519 17.5483 186.519 17.3299V9.42048C186.519 8.07289 186.171 7.02922 185.486 6.31834C184.8 5.60642 183.793 5.24583 182.493 5.24583L182.491 5.24274Z" fill="#494746"/>
<path d="M193.894 5.24274C192.304 5.24274 191.072 5.75684 190.233 6.77166C189.4 7.78029 188.977 9.24637 188.977 11.1287V12.8636C188.977 14.5636 189.405 15.8947 190.248 16.8199C191.093 17.7471 192.312 18.218 193.871 18.218C194.656 18.218 195.385 18.0912 196.04 17.8409C196.698 17.5895 197.23 17.2382 197.621 16.7941C197.839 16.5417 198.036 16.2378 198.206 15.8926C198.381 15.5351 198.468 15.2477 198.468 15.0138C198.468 14.8006 198.423 14.6738 198.329 14.613C198.248 14.5626 198.105 14.5399 197.863 14.5399H197.042C196.849 14.5399 196.724 14.5646 196.652 14.6172C196.604 14.6522 196.534 14.7274 196.423 14.9963C196.011 15.9658 195.198 16.4366 193.939 16.4366C191.951 16.4366 190.985 15.2219 190.985 12.7246V12.3897H198.114C198.325 12.3897 198.47 12.3506 198.558 12.2712C198.651 12.1878 198.696 12.0415 198.696 11.8231V10.6434C198.696 7.06013 197.08 5.24274 193.893 5.24274H193.894ZM193.894 6.88499C194.844 6.88499 195.549 7.19716 195.99 7.81326C196.427 8.42318 196.655 9.38648 196.666 10.6774H190.987C191.026 8.12543 191.979 6.88499 193.894 6.88499Z" fill="#494746"/>
<path d="M220.794 5.56624H219.859C219.662 5.56624 219.521 5.61054 219.433 5.70018C219.351 5.78363 219.286 5.92478 219.235 6.1298L216.801 15.7546L214.438 6.61712C214.386 6.39046 214.307 6.23901 214.194 6.15246C214.085 6.06901 213.934 6.0278 213.745 6.0278H212.65C212.461 6.0278 212.309 6.07004 212.201 6.15246C212.088 6.23798 212.009 6.38943 211.957 6.61506L209.681 15.7536L207.159 6.12465C207.092 5.90417 207.018 5.75993 206.935 5.68472C206.847 5.60436 206.717 5.56624 206.536 5.56624H205.577C205.171 5.56624 205.11 5.80526 205.11 5.94744C205.11 5.98659 205.118 6.05974 205.182 6.2761L208.172 17.3103C208.239 17.5328 208.32 17.6812 208.421 17.7646C208.523 17.8491 208.672 17.8924 208.863 17.8924H210.369C210.559 17.8924 210.71 17.8502 210.819 17.7677C210.931 17.6822 211.011 17.5308 211.062 17.3051L213.175 8.84559L215.288 17.3031C215.34 17.5297 215.42 17.6822 215.532 17.7677C215.641 17.8512 215.793 17.8924 215.982 17.8924H217.488C217.679 17.8924 217.827 17.8491 217.93 17.7646C218.03 17.6812 218.112 17.5318 218.18 17.3072L221.19 6.27713C221.255 6.05974 221.263 5.98659 221.263 5.94641C221.263 5.80423 221.203 5.56521 220.796 5.56521L220.794 5.56624Z" fill="#494746"/>
<path d="M227.299 5.24274C226.393 5.24274 225.629 5.36122 225.026 5.59612C224.419 5.83308 223.907 6.19265 223.501 6.66657C223.314 6.88808 223.156 7.13225 223.031 7.39394C222.903 7.66181 222.838 7.91423 222.838 8.14501C222.838 8.34797 222.883 8.48706 222.975 8.56948C223.063 8.64984 223.217 8.68899 223.443 8.68899H224.264C224.482 8.68899 224.61 8.65808 224.678 8.58905C224.714 8.55299 224.773 8.47778 224.883 8.23258C225.086 7.74835 225.365 7.40321 225.716 7.20746C226.072 7.00862 226.603 6.90868 227.298 6.90868C228.148 6.90868 228.765 7.09001 229.131 7.44648C229.496 7.80193 229.681 8.39536 229.681 9.21031V10.4569C229.251 10.4034 228.812 10.3611 228.376 10.3323C227.904 10.3014 227.511 10.2859 227.206 10.2859C225.532 10.2859 224.282 10.6125 223.491 11.2575C222.693 11.9076 222.29 12.9461 222.29 14.3452C222.29 15.668 222.675 16.6406 223.436 17.2371C224.19 17.8275 225.365 18.1263 226.933 18.1263H227.275C228.802 18.1263 229.931 17.778 230.632 17.0908C231.334 16.4026 231.69 15.3311 231.69 13.9052V9.16394C231.69 7.78235 231.341 6.77166 230.651 6.15968C229.966 5.55182 228.838 5.24274 227.299 5.24274ZM227.275 16.3666H227.07C226.049 16.3666 225.33 16.2028 224.932 15.8803C224.542 15.564 224.344 15.0385 224.344 14.3194C224.344 13.4931 224.557 12.8976 224.979 12.5504C225.407 12.1981 226.203 12.0188 227.344 12.0188C227.616 12.0188 227.977 12.0384 228.42 12.0765C228.838 12.1126 229.262 12.1589 229.683 12.2146V13.6961C229.683 14.6367 229.496 15.325 229.127 15.7433C228.761 16.1574 228.139 16.3666 227.275 16.3666Z" fill="#494746"/>
<path d="M243.057 5.56624H242.099C241.917 5.56624 241.789 5.60642 241.706 5.68884C241.634 5.76302 241.561 5.89902 241.477 6.12156L238.536 14.7738L235.373 6.11847C235.29 5.89902 235.218 5.76302 235.145 5.68884C235.063 5.60642 234.935 5.56624 234.752 5.56624H233.748C233.342 5.56624 233.281 5.80526 233.281 5.94744C233.281 5.98762 233.289 6.05974 233.356 6.26167L237.54 17.4432L237.279 18.2159C237.145 18.594 237.006 18.9072 236.865 19.1462C236.729 19.3801 236.573 19.5645 236.402 19.6943C236.232 19.8231 236.036 19.9107 235.817 19.9529C235.59 19.9972 235.315 20.0199 235.003 20.0199H234.73C234.527 20.0199 234.395 20.0642 234.329 20.1549C234.268 20.2373 234.24 20.3743 234.24 20.5876V21.281C234.24 21.4932 234.269 21.6312 234.329 21.7137C234.396 21.8043 234.527 21.8486 234.73 21.8486H235.255C235.701 21.8486 236.111 21.8054 236.476 21.7188C236.846 21.6312 237.194 21.4613 237.508 21.214C237.821 20.9688 238.117 20.6164 238.388 20.1683C238.657 19.7232 238.917 19.137 239.161 18.4261L243.451 6.25858C243.516 6.05974 243.525 5.98865 243.525 5.94847C243.525 5.80629 243.464 5.56624 243.057 5.56624Z" fill="#494746"/>
<path d="M255.515 16.0657H254.443C254.007 16.0657 253.693 15.9431 253.509 15.701C253.319 15.4517 253.222 15.0179 253.222 14.4121V7.30019H255.47C255.673 7.30019 255.804 7.25691 255.871 7.16625C255.932 7.08383 255.961 6.9468 255.961 6.73354V6.13186C255.961 5.91859 255.932 5.78157 255.871 5.69915C255.804 5.60745 255.676 5.56521 255.47 5.56521H253.222V2.73197C253.222 2.51355 253.178 2.36725 253.085 2.2838C252.996 2.20447 252.852 2.16532 252.641 2.16532H251.797C251.586 2.16532 251.441 2.20447 251.351 2.2838C251.259 2.36725 251.214 2.51355 251.214 2.73197V5.56521H249.834C249.628 5.56521 249.5 5.60745 249.433 5.69915C249.372 5.78157 249.344 5.91859 249.344 6.13186V6.73354C249.344 6.94577 249.373 7.08383 249.433 7.16625C249.5 7.25588 249.631 7.30019 249.834 7.30019H251.214V14.713C251.214 15.7999 251.462 16.6097 251.951 17.1207C252.441 17.6328 253.226 17.8924 254.284 17.8924H255.515C255.719 17.8924 255.85 17.8481 255.917 17.7585C255.978 17.676 256.006 17.539 256.006 17.3257V16.6324C256.006 16.4201 255.978 16.2821 255.917 16.1997C255.85 16.11 255.719 16.0657 255.515 16.0657Z" fill="#494746"/>
<path d="M263.645 5.24274C262.904 5.24274 262.222 5.38182 261.618 5.6569C261.101 5.89181 260.652 6.21428 260.28 6.61918V1.78515C260.28 1.56673 260.235 1.42043 260.143 1.33698C260.054 1.25765 259.909 1.2185 259.699 1.2185H258.854C258.644 1.2185 258.498 1.25765 258.41 1.33698C258.317 1.42043 258.273 1.56673 258.273 1.78515V17.3268C258.273 17.5452 258.317 17.6925 258.41 17.7749C258.498 17.8553 258.644 17.8945 258.855 17.8945H259.7C259.91 17.8945 260.055 17.8553 260.144 17.776C260.236 17.6925 260.281 17.5462 260.281 17.3278V10.2282C260.281 9.27315 260.544 8.49942 261.064 7.92865C261.581 7.35994 262.288 7.07147 263.166 7.07147C264.045 7.07147 264.687 7.28988 265.075 7.72054C265.466 8.15325 265.665 8.85795 265.665 9.81302V17.3288C265.665 17.5473 265.709 17.6946 265.802 17.777C265.89 17.8574 266.036 17.8965 266.247 17.8965H267.09C267.301 17.8965 267.446 17.8574 267.536 17.778C267.628 17.6946 267.673 17.5483 267.673 17.3299V9.42048C267.673 8.07289 267.325 7.02922 266.64 6.31834C265.954 5.60642 264.947 5.24583 263.647 5.24583L263.645 5.24274Z" fill="#494746"/>
<path d="M275.049 5.24274C273.458 5.24274 272.226 5.75684 271.388 6.77166C270.554 7.78029 270.131 9.24637 270.131 11.1287V12.8636C270.131 14.5636 270.559 15.8947 271.402 16.8199C272.247 17.7471 273.466 18.218 275.025 18.218C275.81 18.218 276.54 18.0912 277.194 17.8409C277.853 17.5895 278.384 17.2382 278.775 16.7941C278.994 16.5417 279.19 16.2378 279.361 15.8926C279.537 15.5351 279.623 15.2477 279.623 15.0138C279.623 14.8006 279.578 14.6738 279.484 14.613C279.404 14.5626 279.26 14.5399 279.018 14.5399H278.197C278.003 14.5399 277.879 14.5646 277.806 14.6172C277.758 14.6522 277.688 14.7274 277.577 14.9963C277.166 15.9658 276.352 16.4366 275.093 16.4366C273.105 16.4366 272.139 15.2219 272.139 12.7246V12.3897H279.268C279.479 12.3897 279.624 12.3506 279.714 12.2712C279.806 12.1888 279.851 12.0415 279.851 11.8231V10.6434C279.851 7.06013 278.235 5.24274 275.049 5.24274ZM275.049 6.88499C275.998 6.88499 276.703 7.19716 277.144 7.81326C277.581 8.42318 277.809 9.38648 277.82 10.6774H272.142C272.181 8.12543 273.133 6.88499 275.05 6.88499H275.049Z" fill="#494746"/>
<path d="M290.894 5.56624H289.936C289.754 5.56624 289.626 5.60642 289.544 5.68884C289.471 5.76302 289.398 5.89902 289.314 6.12156L286.374 14.7738L283.211 6.11847C283.127 5.89902 283.055 5.76302 282.982 5.68884C282.901 5.60642 282.773 5.56624 282.59 5.56624H281.586C281.179 5.56624 281.118 5.80526 281.118 5.94744C281.118 5.98762 281.126 6.05974 281.193 6.26167L285.378 17.4432L285.116 18.2159C284.982 18.594 284.843 18.9072 284.703 19.1462C284.567 19.3801 284.41 19.5645 284.239 19.6943C284.07 19.8231 283.873 19.9107 283.654 19.9529C283.427 19.9972 283.153 20.0199 282.841 20.0199H282.567C282.364 20.0199 282.232 20.0642 282.166 20.1549C282.105 20.2373 282.078 20.3743 282.078 20.5876V21.281C282.078 21.4932 282.106 21.6312 282.166 21.7137C282.233 21.8043 282.364 21.8486 282.567 21.8486H283.092C283.538 21.8486 283.949 21.8054 284.314 21.7188C284.683 21.6312 285.031 21.4613 285.345 21.214C285.658 20.9688 285.954 20.6164 286.225 20.1683C286.495 19.7232 286.755 19.137 286.999 18.4261L291.289 6.25858C291.354 6.05974 291.362 5.98865 291.362 5.94847C291.362 5.80629 291.301 5.56624 290.894 5.56624Z" fill="#494746"/>
<path d="M302.714 5.24274C301.809 5.24274 301.045 5.36122 300.442 5.59612C299.835 5.83308 299.323 6.19265 298.917 6.66657C298.73 6.88808 298.572 7.13225 298.447 7.39394C298.319 7.66181 298.255 7.91423 298.255 8.14501C298.255 8.34797 298.299 8.48706 298.392 8.56948C298.48 8.64984 298.634 8.68796 298.859 8.68796H299.681C299.9 8.68796 300.028 8.65705 300.095 8.58802C300.131 8.55196 300.19 8.47675 300.3 8.23155C300.503 7.74732 300.783 7.40218 301.133 7.20643C301.489 7.00759 302.02 6.90765 302.714 6.90765C303.565 6.90765 304.182 7.08898 304.548 7.44545C304.913 7.8009 305.098 8.39433 305.098 9.20928V10.4559C304.668 10.4023 304.23 10.3601 303.793 10.3312C303.321 10.3003 302.927 10.2849 302.623 10.2849C300.949 10.2849 299.699 10.6115 298.908 11.2564C298.11 11.9055 297.706 12.945 297.706 14.3441C297.706 15.667 298.091 16.6396 298.852 17.2361C299.604 17.8265 300.781 18.1252 302.349 18.1252H302.691C304.218 18.1252 305.347 17.777 306.048 17.0898C306.749 16.4016 307.106 15.3301 307.106 13.9042V9.16291C307.106 7.78132 306.756 6.77063 306.067 6.15865C305.381 5.55079 304.253 5.24274 302.714 5.24274ZM302.691 16.3666H302.486C301.465 16.3666 300.746 16.2028 300.348 15.8803C299.958 15.563 299.76 15.0385 299.76 14.3194C299.76 13.4931 299.973 12.8976 300.395 12.5504C300.823 12.1981 301.619 12.0188 302.76 12.0188C303.032 12.0188 303.393 12.0384 303.835 12.0765C304.253 12.1126 304.678 12.1589 305.099 12.2146V13.6961C305.099 14.6367 304.912 15.325 304.544 15.7433C304.178 16.1574 303.555 16.3676 302.692 16.3676L302.691 16.3666Z" fill="#494746"/>
<path d="M315.284 5.56624H314.987C314.239 5.56624 313.555 5.77848 312.955 6.1978C312.476 6.5316 312.09 6.95401 311.805 7.45576V6.13289C311.805 5.9155 311.76 5.7692 311.667 5.68472C311.579 5.60539 311.434 5.56624 311.222 5.56624H310.424C310.214 5.56624 310.068 5.60539 309.979 5.68472C309.887 5.76817 309.842 5.91447 309.842 6.13289V17.3257C309.842 17.5442 309.887 17.6905 309.979 17.7739C310.068 17.8543 310.214 17.8924 310.424 17.8924H311.268C311.478 17.8924 311.624 17.8532 311.713 17.7739C311.806 17.6905 311.85 17.5442 311.85 17.3257V11.4285C311.85 10.8711 311.918 10.3477 312.052 9.87277C312.185 9.40091 312.379 8.98365 312.63 8.63336C312.879 8.28512 313.179 8.01107 313.52 7.81944C313.86 7.62884 314.254 7.532 314.691 7.532H315.285C315.489 7.532 315.62 7.4877 315.686 7.39806C315.747 7.31667 315.775 7.17861 315.775 6.96535V6.13289C315.775 5.91962 315.747 5.7826 315.687 5.70121C315.62 5.60951 315.492 5.56727 315.286 5.56727L315.284 5.56624Z" fill="#494746"/>
<path d="M322.198 5.24274C320.607 5.24274 319.375 5.75684 318.537 6.77166C317.704 7.78029 317.281 9.24637 317.281 11.1287V12.8636C317.281 14.5636 317.709 15.8947 318.551 16.8199C319.396 17.7471 320.615 18.218 322.174 18.218C322.959 18.218 323.689 18.0912 324.343 17.8409C325.002 17.5895 325.534 17.2382 325.925 16.7941C326.143 16.5407 326.339 16.2378 326.509 15.8926C326.685 15.5351 326.771 15.2477 326.771 15.0138C326.771 14.8016 326.727 14.6738 326.632 14.613C326.552 14.5626 326.408 14.5399 326.167 14.5399H325.345C325.151 14.5399 325.027 14.5646 324.955 14.6172C324.883 14.6687 324.813 14.7861 324.726 14.9963C324.314 15.9658 323.502 16.4366 322.243 16.4366C320.255 16.4366 319.288 15.2219 319.288 12.7246V12.3897H326.418C326.628 12.3897 326.773 12.3506 326.863 12.2712C326.955 12.1878 327 12.0415 327 11.8231V10.6434C327 7.06013 325.384 5.24274 322.198 5.24274ZM322.198 6.88499C323.147 6.88499 323.852 7.19716 324.293 7.81326C324.731 8.42318 324.958 9.38648 324.969 10.6774H319.29C319.33 8.12543 320.282 6.88499 322.198 6.88499Z" fill="#494746"/>
</svg>