<svg width="327" height="49" viewBox="0 0 327 49" fill="none" xmlns="http://www.w3.org/2000/svg">
<path d="M27.5824 29.3535C27.5824 29.3535 19.4639 21.1493 18.9254 20.6237C16.8925 18.619 15.7238 14.5332 18.5773 11.5272C20.5674 9.44812 23.1867 9.56526 25.0761 10.3109C26.4748 10.8681 27.2556 11.7635 27.9427 12.5234C28.6248 11.7635 29.4147 10.8681 30.8094 10.3109C32.6957 9.56526 35.2651 9.49701 37.3062 11.5272C40.4589 14.6697 39.0826 18.6628 37.2838 20.423C36.5631 21.1361 28.3469 29.3199 28.3469 29.3199L28.3214 30.0595H32.8169C36.842 30.0595 39.9102 29.1243 42.2312 27.47C44.5593 25.828 46.4803 23.5595 47.6632 20.5025C48.333 18.7789 50.1735 12.6426 45.3595 6.54803C40.5434 0.450396 33.9509 0.921013 33.0001 0.921013H2.59485C1.25416 0.921013 0 1.97939 0 3.53181V35.1079C0 42.7284 6.17715 48.9126 13.807 48.9126C21.4368 48.9126 27.5824 42.7294 27.5824 35.1079V29.3535Z" fill="#EA5550"/>
<path d="M62.9086 31.0027V4.58C62.9086 3.5094 63.2445 2.63845 63.9215 1.96411C64.5964 1.28365 65.4698 0.946479 66.5418 0.946479H74.4393C79.6616 0.946479 83.7295 2.49177 86.6531 5.59865C89.5788 8.69126 91.0478 12.9003 91.0478 18.2136C91.0478 23.154 89.5727 27.1135 86.6348 30.0859C83.6898 33.0604 79.7909 34.5415 74.9157 34.5415H66.6344C65.6887 34.5415 64.8702 34.295 64.1811 33.7877C63.3331 33.1592 62.9086 32.2332 62.9086 31.0027ZM70.0121 7.44444V28.0415H74.8394C77.7559 28.0415 79.9873 27.0534 81.5276 25.0742C82.967 23.2773 83.6888 20.8835 83.6888 17.8835C83.6888 14.7023 82.9497 12.2087 81.4645 10.3771C79.8489 8.41928 77.4811 7.44444 74.3701 7.44444H70.0111H70.0121Z" fill="#EA5550"/>
<path d="M105.144 8.84304C108.644 8.84304 111.568 10.1815 113.931 12.8565C116.195 15.4062 117.325 18.4611 117.325 22.0203C117.325 25.6365 116.195 28.724 113.931 31.2747C111.667 33.8172 108.737 35.0926 105.144 35.0926C101.55 35.0926 98.6369 33.8162 96.3708 31.2747C94.0967 28.724 92.9657 25.6355 92.9657 22.0203C92.9657 18.4611 94.0967 15.4062 96.3708 12.8565C98.7305 10.1815 101.658 8.84304 105.144 8.84304ZM105.144 15.0925C103.419 15.0925 102.05 15.8483 101.043 17.3549C100.192 18.6394 99.774 20.1969 99.774 22.0203C99.774 23.808 100.21 25.3441 101.096 26.6358C102.065 28.1026 103.42 28.8452 105.144 28.8452C106.877 28.8452 108.234 28.1026 109.211 26.6358C110.087 25.3441 110.526 23.808 110.526 22.0203C110.526 20.1969 110.095 18.6394 109.25 17.3549C108.246 15.8483 106.879 15.0925 105.144 15.0925Z" fill="#EA5550"/>
<path d="M119.454 25.1924V12.9197C119.454 11.7951 119.771 10.8783 120.397 10.1826C121.025 9.49294 121.849 9.14558 122.853 9.14558C123.868 9.14558 124.681 9.49192 125.31 10.1826C125.941 10.8783 126.258 11.7951 126.258 12.9197V25.0559C126.258 26.4076 126.712 27.4955 127.63 28.3084C128.45 29.0653 129.462 29.4401 130.654 29.4401C131.862 29.4401 132.892 29.051 133.763 28.2666C134.628 27.4772 135.053 26.4076 135.053 25.0559V12.9197C135.053 11.7951 135.378 10.8783 136.011 10.1826C136.638 9.49294 137.456 9.14558 138.456 9.14558C139.479 9.14558 140.292 9.49192 140.917 10.1826C141.552 10.8783 141.869 11.7951 141.869 12.9197V25.1924C141.869 28.2361 140.888 30.6503 138.931 32.4339C136.984 34.2033 134.222 35.0916 130.654 35.0916C127.086 35.0916 124.34 34.2033 122.382 32.4339C120.428 30.6503 119.455 28.2361 119.455 25.1924" fill="#EA5550"/>
<path d="M145.256 31.0679V4.72057C145.256 3.58376 145.57 2.6792 146.204 1.98448C146.825 1.28976 147.648 0.946479 148.657 0.946479C149.666 0.946479 150.483 1.28976 151.109 1.98448C151.744 2.6792 152.06 3.58376 152.06 4.72057V11.2277C153.881 9.64268 156.036 8.84101 158.521 8.84101C161.948 8.84101 164.682 10.2641 166.728 13.0888C168.552 15.6466 169.465 18.7148 169.465 22.3024C169.465 25.6701 168.456 28.5957 166.443 31.0852C164.275 33.747 161.555 35.0916 158.282 35.0916C155.415 35.0916 153.339 34.0638 152.053 31.9979C151.606 33.8998 150.48 34.8491 148.652 34.8491C147.649 34.8491 146.826 34.4987 146.201 33.8071C145.571 33.1113 145.256 32.2007 145.256 31.0679ZM152.059 21.7819C152.059 23.6379 152.482 25.2168 153.334 26.5421C154.305 28.0823 155.652 28.8442 157.381 28.8442C159.014 28.8442 160.34 28.1026 161.343 26.6348C162.223 25.3176 162.662 23.7764 162.662 22.0182C162.662 20.2264 162.223 18.673 161.343 17.3549C160.34 15.8493 159.014 15.0904 157.381 15.0904C155.687 15.0904 154.347 15.8004 153.377 17.2143C152.497 18.4377 152.059 19.9626 152.059 21.7819Z" fill="#EA5550"/>
<path d="M172.236 31.0679V4.72261C172.236 3.5858 172.543 2.67818 173.173 1.98346C173.808 1.29078 174.617 0.94546 175.63 0.94546C176.633 0.94546 177.456 1.29078 178.086 1.98346C178.717 2.67818 179.026 3.5858 179.026 4.72261V31.0679C179.026 32.1986 178.717 33.1123 178.086 33.805C177.456 34.4946 176.634 34.8471 175.63 34.8471C174.617 34.8471 173.808 34.4946 173.173 33.805C172.543 33.1123 172.236 32.1986 172.236 31.0679Z" fill="#EA5550"/>
<path d="M203.047 24.243H188.552C188.774 25.8453 189.514 27.0819 190.773 27.9672C191.906 28.7556 193.308 29.1437 194.98 29.1437C196.3 29.1437 197.803 28.6934 199.477 27.7818C201.167 26.8792 202.226 26.4259 202.67 26.4259C203.388 26.4259 204.036 26.7295 204.603 27.3223C205.171 27.9142 205.456 28.5967 205.456 29.3474C205.456 30.7603 204.248 32.0662 201.84 33.2814C199.435 34.4977 196.936 35.0926 194.357 35.0926C190.579 35.0926 187.509 33.8682 185.15 31.4194C182.79 28.9542 181.607 25.8249 181.607 22.0223C181.607 18.4611 182.743 15.4052 185.007 12.8586C187.371 10.1826 190.294 8.84202 193.795 8.84202C197.296 8.84202 200.244 10.1978 202.669 12.9064C204.898 15.396 206.023 18.1678 206.023 21.2196C206.023 23.2396 205.026 24.242 203.046 24.242M188.41 19.6916H199.213C199.029 18.1494 198.462 16.8944 197.517 15.9379C196.581 14.9723 195.33 14.4965 193.795 14.4965C192.316 14.4965 191.082 14.9885 190.11 15.9868C189.136 16.978 188.571 18.2136 188.409 19.6927" fill="#EA5550"/>
<path d="M208.334 31.1606V4.62584C208.334 3.4656 208.668 2.56307 209.329 1.91419C209.988 1.27143 210.845 0.946479 211.884 0.946479C212.923 0.946479 213.776 1.27143 214.44 1.91419C215.099 2.56307 215.436 3.4656 215.436 4.62584V14.3468H230.167V4.62584C230.167 3.4656 230.496 2.56307 231.161 1.91419C231.823 1.27143 232.676 0.946479 233.718 0.946479C234.759 0.946479 235.611 1.27143 236.28 1.91419C236.94 2.56307 237.27 3.4656 237.27 4.62584V31.1606C237.27 32.3239 236.94 33.2325 236.28 33.8763C235.612 34.5211 234.76 34.8471 233.718 34.8471C232.675 34.8471 231.822 34.5201 231.161 33.8763C230.497 33.2315 230.167 32.3239 230.167 31.1545V20.8448H215.436V31.1545C215.436 32.3239 215.098 33.2315 214.44 33.8763C213.776 34.5211 212.924 34.8471 211.884 34.8471C210.844 34.8471 209.988 34.5201 209.329 33.8763C208.668 33.2315 208.334 32.3239 208.334 31.1606Z" fill="#EA5550"/>
<path d="M261.294 24.243H246.799C247.017 25.8453 247.757 27.0819 249.016 27.9672C250.147 28.7556 251.548 29.1437 253.222 29.1437C254.543 29.1437 256.046 28.6934 257.725 27.7818C259.418 26.8792 260.47 26.4259 260.913 26.4259C261.643 26.4259 262.283 26.7295 262.848 27.3223C263.415 27.9142 263.701 28.5967 263.701 29.3474C263.701 30.7603 262.503 32.0662 260.087 33.2814C257.677 34.4977 255.184 35.0926 252.604 35.0926C248.827 35.0926 245.761 33.8682 243.402 31.4194C241.038 28.9542 239.855 25.8249 239.855 22.0223C239.855 18.4611 240.995 15.4052 243.255 12.8586C245.616 10.1826 248.552 8.84202 252.039 8.84202C255.527 8.84202 258.489 10.1978 260.913 12.9064C263.152 15.396 264.269 18.1678 264.269 21.2196C264.269 23.2396 263.274 24.243 261.294 24.243ZM246.658 19.6916H257.468C257.273 18.1494 256.71 16.8944 255.761 15.9379C254.824 14.9723 253.579 14.4965 252.039 14.4965C250.564 14.4965 249.33 14.9885 248.359 15.9868C247.386 16.978 246.815 18.2136 246.658 19.6927" fill="#EA5550"/>
<path d="M290.253 13.5889V30.4048C290.253 31.729 290.116 32.6855 289.831 33.2916C289.354 34.3286 288.419 34.8471 286.996 34.8471C285.329 34.8471 284.239 33.8794 283.742 31.947C281.98 34.0454 279.823 35.0936 277.274 35.0936C274.067 35.0936 271.394 33.8672 269.253 31.4163C267.113 28.9522 266.045 25.8219 266.045 22.0203C266.045 18.3032 267.132 15.178 269.318 12.6416C271.509 10.1092 274.165 8.83999 277.274 8.83999C280.108 8.83999 282.261 9.88614 283.742 11.9927C283.834 11.1696 284.205 10.4912 284.825 9.95337C285.455 9.41145 286.174 9.14354 286.996 9.14354C288.419 9.14354 289.354 9.66204 289.831 10.7C290.116 11.3031 290.253 12.2586 290.253 13.5869M272.842 22.0213C272.842 23.809 273.281 25.3431 274.164 26.6368C275.134 28.1036 276.489 28.8452 278.221 28.8452C279.882 28.8452 281.205 28.1036 282.175 26.6368C283.023 25.3441 283.455 23.809 283.455 22.0213C283.455 20.1959 283.023 18.6394 282.175 17.3559C281.205 15.8493 279.882 15.0914 278.221 15.0914C276.489 15.0914 275.122 15.8483 274.122 17.3559C273.27 18.6394 272.842 20.1959 272.842 22.0213Z" fill="#EA5550"/>
<path d="M294.086 31.0679V12.5438C294.086 11.4732 294.464 10.6257 295.224 9.99615C295.88 9.42978 296.668 9.14456 297.581 9.14456C299.782 9.14456 300.89 10.0909 300.89 11.9805C302.195 10.0909 303.802 9.14456 305.718 9.14456C306.638 9.14456 307.428 9.46136 308.072 10.0909C308.727 10.7184 309.059 11.6178 309.059 12.7832C309.059 13.7224 308.617 14.4212 307.737 14.8622C306.842 15.3023 305.94 15.7118 304.989 16.0887C303.61 16.7498 302.66 17.2825 302.152 17.6971C301.313 18.453 300.887 19.4237 300.887 20.6227V31.0679C300.887 32.1986 300.573 33.1123 299.939 33.805C299.3 34.4946 298.495 34.8471 297.483 34.8471C296.483 34.8471 295.659 34.4946 295.026 33.805C294.405 33.1123 294.084 32.1986 294.084 31.0679" fill="#EA5550"/>
<path d="M315.02 31.0679V15.396H313.505C311.508 15.396 310.517 14.3998 310.517 12.4216C310.517 11.57 310.806 10.862 311.373 10.2997C311.939 9.72927 312.646 9.44303 313.505 9.44303H315.02V4.7277C315.02 3.59598 315.341 2.67716 315.957 1.98346C316.596 1.30097 317.411 0.94546 318.417 0.94546C319.424 0.94546 320.246 1.30097 320.88 1.98346C321.501 2.67818 321.824 3.59598 321.824 4.7277V9.44303H323.755C325.915 9.44303 327 10.4342 327 12.4216C327 14.3988 325.914 15.396 323.755 15.396H321.824V31.0679C321.824 32.1986 321.502 33.1123 320.88 33.805C320.246 34.4946 319.426 34.8471 318.417 34.8471C317.409 34.8471 316.596 34.4946 315.957 33.805C315.341 33.1123 315.02 32.1986 315.02 31.0679Z" fill="#EA5550"/>
</svg>