<svg width="327" height="76" viewBox="0 0 327 76" fill="none" xmlns="http://www.w3.org/2000/svg">
<path d="M28.0673 28.5603C28.0673 28.5603 19.9616 20.3221 19.4242 19.7937C17.394 17.7809 16.2276 13.6767 19.0768 10.6591C21.0641 8.57141 23.6785 8.68862 25.5646 9.43798C26.962 9.99809 27.7409 10.8973 28.4271 11.6601C29.1087 10.8973 29.8971 9.99809 31.2897 9.43798C33.173 8.68958 35.7377 8.62041 37.7766 10.6591C40.9245 13.8151 39.55 17.8251 37.7536 19.5919C37.0339 20.3076 28.8319 28.5267 28.8319 28.5267L28.8061 29.2693H33.2942C37.3127 29.2693 40.3757 28.3297 42.6932 26.6696C45.0174 25.02 46.9351 22.7421 48.1158 19.6726C48.7839 17.9414 50.6223 11.7793 45.8154 5.65945C41.0076 -0.464225 34.4253 0.00845351 33.4765 0.00845351H3.12029C1.78207 0.00845351 0.529752 1.07102 0.529752 2.63028V34.34C0.529752 41.9932 6.69683 48.2023 14.3138 48.2023C21.9308 48.2023 28.0673 41.9922 28.0673 34.34V28.5603Z" fill="#EA5550"/>
<path d="M63.3354 30.2166V3.68227C63.3354 2.60722 63.6714 1.732 64.3472 1.05468C65.0211 0.371608 65.8935 0.0324715 66.9635 0.0324715H74.8487C80.0622 0.0324715 84.1236 1.58501 87.0425 4.70448C89.9633 7.81051 91.4294 12.0367 91.4294 17.3726C91.4294 22.3338 89.9576 26.3103 87.0234 29.2952C84.0826 32.2821 80.1911 33.7693 75.3231 33.7693H67.0551C66.1102 33.7693 65.2941 33.5215 64.6059 33.0123C63.7592 32.3811 63.3354 31.4521 63.3354 30.2156M70.4284 6.55869V27.2422H75.2477C78.1599 27.2422 80.3877 26.2497 81.9254 24.263C83.3619 22.4587 84.0835 20.055 84.0835 17.0421C84.0835 13.8477 83.3457 11.3431 81.8633 9.50331C80.2502 7.53767 77.8859 6.55773 74.7809 6.55773H70.4293L70.4284 6.55869Z" fill="#EA5550"/>
<path d="M105.503 7.96327C108.996 7.96327 111.917 9.30733 114.276 11.9935C116.536 14.5539 117.664 17.6224 117.664 21.1954C117.664 24.8259 116.536 27.9281 114.276 30.4894C112.015 33.0421 109.091 34.3237 105.503 34.3237C101.915 34.3237 99.0063 33.0421 96.7441 30.4894C94.4734 27.9281 93.3442 24.8269 93.3442 21.1954C93.3442 17.6215 94.4734 14.5529 96.7441 11.9935C99.0999 9.30733 102.024 7.96327 105.503 7.96327ZM105.503 14.2387C103.782 14.2387 102.414 14.9977 101.409 16.5109C100.559 17.8011 100.141 19.3642 100.141 21.1954C100.141 22.991 100.576 24.5329 101.461 25.8299C102.428 27.3037 103.782 28.0492 105.503 28.0492C107.234 28.0492 108.589 27.3037 109.562 25.8299C110.437 24.5329 110.876 22.991 110.876 21.1954C110.876 19.3642 110.446 17.8002 109.602 16.5109C108.599 14.9977 107.234 14.2387 105.503 14.2387Z" fill="#EA5550"/>
<path d="M119.79 24.3811V12.056C119.79 10.9261 120.107 10.0058 120.732 9.30733C121.359 8.61464 122.182 8.26686 123.183 8.26686C124.196 8.26686 125.008 8.61464 125.637 9.30733C126.267 10.0058 126.583 10.9271 126.583 12.056V24.2437C126.583 25.6012 127.036 26.6936 127.953 27.5093C128.771 28.2692 129.781 28.6458 130.971 28.6458C132.177 28.6458 133.205 28.2548 134.075 27.467C134.939 26.6734 135.364 25.6003 135.364 24.2428V12.055C135.364 10.9252 135.688 10.0048 136.319 9.30637C136.945 8.61368 137.761 8.2659 138.76 8.2659C139.78 8.2659 140.592 8.61368 141.217 9.30637C141.851 10.0048 142.167 10.9262 142.167 12.055V24.3802C142.167 27.4372 141.189 29.8611 139.234 31.6519C137.291 33.4293 134.532 34.3208 130.971 34.3208C127.41 34.3208 124.667 33.4293 122.713 31.6519C120.761 29.8611 119.79 27.4372 119.79 24.3811Z" fill="#EA5550"/>
<path d="M145.55 30.2819V3.8235C145.55 2.68216 145.864 1.77331 146.498 1.07582C147.118 0.378333 147.939 0.0334322 148.946 0.0334322C149.953 0.0334322 150.77 0.378333 151.394 1.07582C152.029 1.77331 152.343 2.68216 152.343 3.8235V10.3584C154.162 8.76644 156.314 7.96135 158.795 7.96135C162.216 7.96135 164.946 9.38995 166.988 12.227C168.809 14.796 169.721 17.877 169.721 21.4797C169.721 24.8615 168.712 27.7994 166.704 30.2992C164.539 32.9719 161.823 34.3227 158.555 34.3227C155.693 34.3227 153.62 33.2899 152.336 31.2157C151.889 33.1257 150.765 34.0797 148.94 34.0797C147.939 34.0797 147.118 33.7271 146.494 33.0334C145.865 32.335 145.551 31.4194 145.551 30.2829M152.342 20.9571C152.342 22.8209 152.765 24.4061 153.616 25.7377C154.584 27.2844 155.93 28.0501 157.656 28.0501C159.286 28.0501 160.61 27.3056 161.612 25.8309C162.492 24.5079 162.93 22.9602 162.93 21.1944C162.93 19.395 162.492 17.8357 161.612 16.5109C160.611 14.9987 159.286 14.2368 157.656 14.2368C155.965 14.2368 154.627 14.9497 153.659 16.3706C152.779 17.5994 152.342 19.1298 152.342 20.9571Z" fill="#EA5550"/>
<path d="M172.487 30.2819V3.82542C172.487 2.68408 172.793 1.77235 173.422 1.07486C174.056 0.379294 174.864 0.0324715 175.876 0.0324715C176.877 0.0324715 177.698 0.379294 178.327 1.07486C178.957 1.77235 179.266 2.68408 179.266 3.82542V30.2819C179.266 31.4175 178.958 32.335 178.327 33.0305C177.698 33.7232 176.877 34.0768 175.876 34.0768C174.864 34.0768 174.056 33.7232 173.422 33.0305C172.793 32.335 172.487 31.4165 172.487 30.2819Z" fill="#EA5550"/>
<path d="M203.247 23.4281H188.776C188.997 25.0373 189.736 26.2786 190.993 27.1682C192.124 27.9598 193.524 28.3499 195.194 28.3499C196.511 28.3499 198.012 27.8974 199.684 26.9828C201.372 26.0768 202.429 25.6214 202.872 25.6214C203.589 25.6214 204.236 25.926 204.802 26.5216C205.37 27.1154 205.654 27.8013 205.654 28.5545C205.654 29.9735 204.448 31.2849 202.044 32.505C199.643 33.7261 197.148 34.3237 194.574 34.3237C190.802 34.3237 187.736 33.094 185.381 30.6355C183.025 28.1597 181.844 25.0171 181.844 21.1982C181.844 17.6215 182.978 14.5529 185.238 11.9964C187.598 9.30925 190.518 7.96327 194.012 7.96327C197.507 7.96327 200.45 9.32462 202.872 12.0454C205.098 14.5452 206.22 17.3284 206.22 20.3941C206.22 22.4232 205.225 23.43 203.247 23.43M188.636 18.8579H199.421C199.238 17.3083 198.672 16.0487 197.729 15.088C196.795 14.1186 195.545 13.6402 194.013 13.6402C192.537 13.6402 191.304 14.134 190.335 15.1361C189.362 16.1314 188.798 17.3726 188.636 18.8569" fill="#EA5550"/>
<path d="M208.526 30.3751V3.72839C208.526 2.56303 208.859 1.6561 209.518 1.00473C210.177 0.359119 211.032 0.0324715 212.069 0.0324715C213.105 0.0324715 213.958 0.359119 214.621 1.00473C215.279 1.6561 215.616 2.56206 215.616 3.72839V13.4903H230.324V3.72839C230.324 2.56303 230.652 1.6561 231.315 1.00473C231.977 0.359119 232.829 0.0324715 233.869 0.0324715C234.908 0.0324715 235.76 0.359119 236.427 1.00473C237.085 1.6561 237.416 2.56206 237.416 3.72839V30.3761C237.416 31.5443 237.085 32.456 236.427 33.1036C235.76 33.7511 234.909 34.0787 233.869 34.0787C232.828 34.0787 231.977 33.7511 231.315 33.1036C230.652 32.456 230.324 31.5443 230.324 30.3703V20.0165H215.616V30.3703C215.616 31.5443 215.279 32.456 214.621 33.1036C213.958 33.7511 213.107 34.0787 212.069 34.0787C211.03 34.0787 210.177 33.7511 209.518 33.1036C208.858 32.456 208.526 31.5433 208.526 30.3751Z" fill="#EA5550"/>
<path d="M261.401 23.4281H246.93C247.148 25.0373 247.886 26.2786 249.144 27.1682C250.273 27.9598 251.671 28.3499 253.343 28.3499C254.662 28.3499 256.162 27.8974 257.837 26.9828C259.527 26.0768 260.579 25.6214 261.021 25.6214C261.749 25.6214 262.389 25.926 262.953 26.5216C263.519 27.1154 263.803 27.8013 263.803 28.5545C263.803 29.9735 262.608 31.2849 260.195 32.505C257.79 33.7261 255.3 34.3237 252.725 34.3237C248.954 34.3237 245.893 33.094 243.537 30.6355C241.177 28.1597 239.997 25.0171 239.997 21.1982C239.997 17.6215 241.134 14.5529 243.391 11.9964C245.748 9.30925 248.679 7.96327 252.161 7.96327C255.643 7.96327 258.601 9.32462 261.021 12.0454C263.255 14.5452 264.371 17.3284 264.371 20.3941C264.371 22.4232 263.378 23.43 261.401 23.43M246.789 18.8579H257.582C257.387 17.3083 256.825 16.0487 255.878 15.088C254.941 14.1186 253.699 13.6402 252.162 13.6402C250.689 13.6402 249.456 14.134 248.487 15.1361C247.515 16.1314 246.944 17.3736 246.789 18.8579Z" fill="#EA5550"/>
<path d="M290.312 12.7294V29.6161C290.312 30.9467 290.175 31.9075 289.891 32.5156C289.414 33.5561 288.481 34.0777 287.06 34.0777C285.395 34.0777 284.307 33.1055 283.81 31.1658C282.052 33.2736 279.899 34.3256 277.353 34.3256C274.151 34.3256 271.482 33.094 269.344 30.6326C267.208 28.1587 266.142 25.0142 266.142 21.1973C266.142 17.4649 267.227 14.3262 269.409 11.7793C271.597 9.23623 274.248 7.96231 277.352 7.96231C280.181 7.96231 282.331 9.01334 283.809 11.1279C283.902 10.3017 284.271 9.62052 284.891 9.08059C285.52 8.53682 286.238 8.26686 287.059 8.26686C288.48 8.26686 289.412 8.78757 289.89 9.82996C290.174 10.4352 290.311 11.395 290.311 12.7294M272.93 21.1973C272.93 22.9929 273.368 24.5329 274.25 25.8318C275.217 27.3056 276.571 28.0501 278.3 28.0501C279.959 28.0501 281.279 27.3056 282.248 25.8318C283.095 24.5329 283.525 22.9929 283.525 21.1973C283.525 19.3642 283.094 17.8011 282.248 16.5128C281.279 14.9996 279.959 14.2387 278.3 14.2387C276.571 14.2387 275.207 14.9987 274.207 16.5128C273.357 17.8011 272.93 19.3652 272.93 21.1973Z" fill="#EA5550"/>
<path d="M294.14 30.2819V11.6803C294.14 10.6053 294.517 9.75406 295.275 9.12191C295.931 8.55316 296.717 8.26686 297.629 8.26686C299.827 8.26686 300.932 9.21798 300.932 11.1145C302.235 9.21702 303.84 8.26686 305.754 8.26686C306.673 8.26686 307.46 8.58486 308.104 9.21798C308.758 9.84821 309.09 10.7513 309.09 11.9215C309.09 12.8649 308.649 13.5662 307.77 14.0091C306.876 14.452 305.976 14.8622 305.027 15.2408C303.65 15.9056 302.701 16.4388 302.195 16.8558C301.357 17.6147 300.932 18.5899 300.932 19.7937V30.2829C300.932 31.4184 300.619 32.3359 299.986 33.0315C299.348 33.7242 298.545 34.0777 297.535 34.0777C296.537 34.0777 295.714 33.7242 295.081 33.0315C294.461 32.3359 294.141 31.4175 294.141 30.2829" fill="#EA5550"/>
<path d="M315.04 30.2819V14.5433H313.526C311.533 14.5433 310.543 13.5422 310.543 11.5564C310.543 10.7013 310.833 9.9904 311.399 9.42549C311.964 8.8529 312.67 8.56468 313.527 8.56468H315.041V3.82926C315.041 2.69272 315.361 1.77043 315.975 1.07294C316.614 0.38698 317.426 0.0305502 318.432 0.0305502C319.438 0.0305502 320.257 0.38698 320.89 1.07294C321.511 1.77043 321.832 2.69272 321.832 3.82926V8.56468H323.759C325.916 8.56468 327 9.56 327 11.5554C327 13.5412 325.916 14.5423 323.759 14.5423H321.832V30.2809C321.832 31.4165 321.511 32.334 320.89 33.0296C320.257 33.7223 319.439 34.0758 318.432 34.0758C317.425 34.0758 316.614 33.7223 315.975 33.0296C315.361 32.334 315.041 31.4156 315.041 30.2809" fill="#EA5550"/>
<path d="M2.9437 58.0959C3.51354 57.36 4.46137 56.9872 5.76045 56.9872C7.92241 56.9872 9.04587 57.9403 9.19477 59.9011C9.21291 60.1038 9.26922 60.2345 9.36563 60.2989C9.45344 60.3575 9.59853 60.3853 9.82188 60.3853H10.6657C10.8919 60.3853 11.0446 60.3469 11.1334 60.2671C11.226 60.1845 11.2708 60.0462 11.2708 59.8454C11.2708 58.5542 10.8852 57.4801 10.1273 56.6548C9.25968 55.6566 7.82887 55.1503 5.87499 55.1503C4.52437 55.1503 3.38182 55.426 2.47981 55.9689C1.57398 56.5145 0.903919 57.3264 0.486799 58.3851C0.316897 58.8193 0.192811 59.3218 0.115495 59.878C0.0391349 60.4314 0 61.1549 0 62.0272V65.7932C0 66.6512 0.0391349 67.3621 0.115495 67.9088C0.191856 68.4573 0.316897 68.9627 0.487754 69.4161C0.9211 70.4441 1.59212 71.2137 2.48363 71.7056C3.36846 72.1936 4.44896 72.4415 5.69268 72.4415C7.56734 72.4415 9.04205 71.9217 10.0767 70.8957C10.4509 70.5191 10.7468 70.0435 10.9558 69.4815C11.1649 68.9214 11.2699 68.3142 11.2699 67.6772C11.2699 67.4764 11.225 67.3381 11.1324 67.2555C11.0437 67.1767 10.8909 67.1373 10.6647 67.1373H9.86675C9.64339 67.1373 9.49831 67.1642 9.41049 67.2228C9.31409 67.2881 9.25777 67.4188 9.23963 67.6215C9.06114 69.6131 7.91573 70.5815 5.73755 70.5815C4.45373 70.5815 3.51354 70.2087 2.9437 69.4728C2.36813 68.7292 2.07605 67.5072 2.07605 65.8394V61.7524C2.07605 60.0692 2.36813 58.8395 2.9437 58.0959Z" fill="#DD534E"/>
<path d="M18.4525 59.513C16.8614 59.513 15.6301 60.0241 14.792 61.0309C13.9587 62.033 13.5359 63.4875 13.5359 65.3571V67.0797C13.5359 68.7677 13.9635 70.0887 14.8063 71.0071C15.6511 71.9284 16.8709 72.3954 18.4296 72.3954C19.2142 72.3954 19.9444 72.2695 20.5992 72.0216C21.2578 71.7728 21.7895 71.4231 22.1799 70.9831C22.3985 70.7323 22.5951 70.4316 22.765 70.0886C22.9406 69.7341 23.0265 69.4488 23.0265 69.2163C23.0265 69.005 22.9826 68.8791 22.8872 68.8186C22.807 68.7677 22.6638 68.7456 22.4223 68.7456H21.6005C21.4067 68.7456 21.2827 68.7696 21.2101 68.8224C21.1624 68.857 21.0927 68.931 20.982 69.1981C20.5696 70.1607 19.7574 70.6286 18.4984 70.6286C16.5101 70.6286 15.5442 69.4229 15.5442 66.9432V66.6108H22.6734C22.8834 66.6108 23.0294 66.5724 23.1182 66.4927C23.2108 66.41 23.2556 66.265 23.2556 66.0478V64.8767C23.2556 61.3191 21.6396 59.5149 18.4535 59.5149L18.4525 59.513ZM18.4525 61.1443C19.4023 61.1443 20.1067 61.4546 20.5486 62.0656C20.9858 62.6718 21.213 63.6278 21.2244 64.9094H15.5451C15.5852 62.3759 16.5368 61.1443 18.4525 61.1443Z" fill="#DD534E"/>
<path d="M27.1433 55.5183H26.2995C26.0896 55.5183 25.9435 55.5567 25.8547 55.6364C25.7622 55.7191 25.7173 55.8641 25.7173 56.0813V71.5124C25.7173 71.7296 25.7622 71.8756 25.8547 71.9573C25.9435 72.037 26.0886 72.0754 26.2995 72.0754H27.1433C27.3533 72.0754 27.4994 72.037 27.5881 71.9573C27.6807 71.8746 27.7256 71.7296 27.7256 71.5124V56.0813C27.7256 55.8651 27.6807 55.7191 27.5881 55.6364C27.4994 55.5577 27.3543 55.5183 27.1433 55.5183Z" fill="#DD534E"/>
<path d="M35.1612 59.513C33.57 59.513 32.3387 60.0241 31.5007 61.0309C30.6674 62.033 30.2445 63.4875 30.2445 65.3571V67.0797C30.2445 68.7677 30.6721 70.0887 31.515 71.0071C32.3597 71.9284 33.5786 72.3954 35.1383 72.3954C35.9229 72.3954 36.6531 72.2695 37.3079 72.0216C37.9665 71.7728 38.4982 71.4231 38.8885 70.9831C39.1071 70.7323 39.3038 70.4316 39.4737 70.0886C39.6493 69.7341 39.7352 69.4488 39.7352 69.2163C39.7352 69.005 39.6913 68.8791 39.5958 68.8186C39.5157 68.7677 39.3725 68.7456 39.131 68.7456H38.3101C38.1164 68.7456 37.9923 68.7696 37.9188 68.8224C37.871 68.857 37.8014 68.931 37.6906 69.1981C37.2783 70.1607 36.466 70.6286 35.207 70.6286C33.2188 70.6286 32.2528 69.4229 32.2528 66.9432V66.6108H39.382C39.592 66.6108 39.7381 66.5724 39.8268 66.4927C39.9194 66.41 39.9643 66.265 39.9643 66.0478V64.8767C39.9643 61.3191 38.3483 59.5149 35.1622 59.5149L35.1612 59.513ZM35.1612 61.1443C36.1109 61.1443 36.8154 61.4546 37.2573 62.0656C37.6945 62.6718 37.9216 63.6278 37.9331 64.9094H32.2547C32.2939 62.3759 33.2465 61.1433 35.1622 61.1433L35.1612 61.1443Z" fill="#DD534E"/>
<path d="M47.5345 59.513C46.1323 59.513 45.0327 59.9338 44.2605 60.7638V56.0803C44.2605 55.8641 44.2157 55.7181 44.1231 55.6355C44.0343 55.5567 43.8883 55.5183 43.6783 55.5183H42.8345C42.6245 55.5183 42.4785 55.5567 42.3897 55.6364C42.2971 55.7191 42.2522 55.8651 42.2522 56.0813V67.5168C42.2522 69.0703 42.6961 70.2846 43.5733 71.1282C44.4486 71.9698 45.6971 72.3963 47.2834 72.3963C48.8698 72.3963 50.1174 71.9332 50.985 71.0215C51.8517 70.1107 52.2908 68.8157 52.2908 67.1728V64.624C52.2908 62.9822 51.8784 61.7063 51.0652 60.833C50.2501 59.9578 49.0617 59.5139 47.5335 59.5139L47.5345 59.513ZM47.2605 61.2817C49.2946 61.2817 50.2835 62.4951 50.2835 64.9901V66.9192C50.2835 69.4142 49.3022 70.6276 47.2834 70.6276C45.2494 70.6276 44.2605 69.4142 44.2605 66.9192V64.9901C44.2605 63.7805 44.5173 62.8477 45.0251 62.2193C45.5262 61.5968 46.2783 61.2817 47.2605 61.2817Z" fill="#DD534E"/>
<path d="M60.302 59.8348H60.0051C59.2568 59.8348 58.5734 60.0452 57.973 60.4612C57.4938 60.7927 57.1082 61.2115 56.8218 61.7102V60.3968C56.8218 60.1807 56.777 60.0347 56.6844 59.952C56.5956 59.8732 56.4505 59.8339 56.2396 59.8339H55.4416C55.2307 59.8339 55.0856 59.8723 54.9968 59.952C54.9042 60.0347 54.8594 60.1797 54.8594 60.3968V71.5105C54.8594 71.7277 54.9042 71.8737 54.9968 71.9553C55.0856 72.0351 55.2307 72.0735 55.4416 72.0735H56.2854C56.4964 72.0735 56.6414 72.0351 56.7302 71.9553C56.8228 71.8727 56.8677 71.7277 56.8677 71.5105V65.6549C56.8677 65.1006 56.9354 64.5808 57.0691 64.11C57.2017 63.6422 57.3965 63.2281 57.6465 62.8794C57.8947 62.5335 58.1944 62.2616 58.5371 62.0714C58.8769 61.8821 59.2711 61.7861 59.7083 61.7861H60.301C60.5043 61.7861 60.6361 61.7428 60.7029 61.6525C60.763 61.5708 60.7916 61.4344 60.7916 61.2231V60.3968C60.7916 60.1855 60.763 60.0491 60.7029 59.9674C60.6351 59.8761 60.5082 59.8348 60.302 59.8348Z" fill="#DD534E"/>
<path d="M66.9415 59.513C66.0367 59.513 65.2721 59.6311 64.6688 59.8646C64.0627 60.099 63.5502 60.4564 63.1445 60.9272C62.9574 61.1472 62.799 61.3902 62.6739 61.6496C62.546 61.9148 62.4811 62.1655 62.4811 62.3952C62.4811 62.5969 62.526 62.7343 62.6186 62.8169C62.7073 62.8967 62.8601 62.9351 63.0863 62.9351H63.9072C64.1257 62.9351 64.2536 62.9043 64.3224 62.8352C64.3577 62.7996 64.4169 62.7247 64.5266 62.4816C64.729 62.0003 65.0096 61.6583 65.3599 61.4642C65.7159 61.2673 66.2476 61.1673 66.9415 61.1673C67.792 61.1673 68.4086 61.347 68.7751 61.7015C69.1398 62.0551 69.3249 62.644 69.3249 63.452V64.6894C68.8945 64.6356 68.4563 64.5943 68.0201 64.5654C67.5486 64.5347 67.1553 64.5193 66.8499 64.5193C65.1757 64.5193 63.9262 64.844 63.135 65.4839C62.3379 66.1295 61.9332 67.1604 61.9332 68.5496C61.9332 69.8629 62.3188 70.8294 63.0796 71.4212C63.8317 72.0072 65.0087 72.3041 66.576 72.3041H66.9186C68.4449 72.3041 69.5741 71.9582 70.2756 71.2761C70.9772 70.593 71.3332 69.5285 71.3332 68.1134V63.4058C71.3332 62.0339 70.9839 61.03 70.2947 60.4228C69.6094 59.8194 68.4812 59.513 66.9415 59.513ZM66.9186 70.5585H66.7134C65.693 70.5585 64.9733 70.3961 64.5763 70.0762C64.1859 69.762 63.9873 69.2403 63.9873 68.5265C63.9873 67.706 64.2011 67.1142 64.6221 66.7693C65.0497 66.4187 65.8458 66.2419 66.9873 66.2419C67.2584 66.2419 67.6202 66.2611 68.0621 66.2986C68.4802 66.3341 68.905 66.3803 69.3259 66.436V67.9068C69.3259 68.8407 69.1388 69.5247 68.7704 69.9388C68.4048 70.35 67.7815 70.5585 66.9186 70.5585Z" fill="#DD534E"/>
<path d="M79.3721 70.2606H78.3002C77.8649 70.2606 77.5499 70.1386 77.3657 69.8984C77.1758 69.6506 77.0794 69.2202 77.0794 68.6187V61.5574H79.3263C79.5296 61.5574 79.6613 61.5142 79.7272 61.4248C79.7882 61.3432 79.8169 61.2067 79.8169 60.9954V60.3978C79.8169 60.1864 79.7882 60.05 79.7281 59.9684C79.6603 59.8771 79.5334 59.8348 79.3263 59.8348H77.0794V57.0218C77.0794 56.8056 77.0345 56.6596 76.9419 56.577C76.8531 56.4982 76.7081 56.4598 76.4971 56.4598H75.6533C75.4433 56.4598 75.2973 56.4982 75.2085 56.578C75.1159 56.6606 75.0711 56.8056 75.0711 57.0228V59.8358H73.6909C73.4837 59.8358 73.3568 59.8781 73.289 59.9693C73.2289 60.051 73.2002 60.1874 73.2002 60.3988V60.9963C73.2002 61.2077 73.2289 61.3441 73.289 61.4258C73.3558 61.5151 73.4875 61.5584 73.6909 61.5584H75.0711V68.9185C75.0711 69.9974 75.3192 70.8015 75.808 71.3097C76.2976 71.818 77.0822 72.0764 78.1408 72.0764H79.373C79.5763 72.0764 79.7081 72.0332 79.7749 71.9429C79.836 71.8612 79.8637 71.7248 79.8637 71.5134V70.8246C79.8637 70.6132 79.836 70.4768 79.7749 70.3951C79.7081 70.3058 79.5763 70.2625 79.373 70.2625L79.3721 70.2606Z" fill="#DD534E"/>
<path d="M86.4545 59.513C84.8634 59.513 83.6321 60.0241 82.794 61.0309C81.9607 62.033 81.5379 63.4875 81.5379 65.3571V67.0797C81.5379 68.7677 81.9655 70.0887 82.8083 71.0071C83.6531 71.9284 84.8729 72.3954 86.4316 72.3954C87.2162 72.3954 87.9464 72.2695 88.6012 72.0216C89.2598 71.7728 89.7915 71.4231 90.1828 70.9831C90.4005 70.7323 90.598 70.4316 90.768 70.0886C90.9436 69.7341 91.0295 69.4488 91.0295 69.2163C91.0295 69.005 90.9856 68.8791 90.8901 68.8186C90.8099 68.7677 90.6668 68.7456 90.4253 68.7456H89.6035C89.4097 68.7456 89.2856 68.7696 89.2131 68.8224C89.1653 68.857 89.0957 68.931 88.9849 69.1981C88.5726 70.1607 87.7603 70.6286 86.5013 70.6286C84.5131 70.6286 83.5471 69.4229 83.5471 66.9432V66.6108H90.6763C90.8863 66.6108 91.0324 66.5724 91.1211 66.4927C91.2137 66.41 91.2586 66.265 91.2586 66.0478V64.8767C91.2586 61.3191 89.6426 59.5149 86.4564 59.5149L86.4545 59.513ZM86.4545 61.1443C87.4043 61.1443 88.1087 61.4546 88.5497 62.0656C88.9868 62.6718 89.214 63.6278 89.2255 64.9094H83.5461C83.5862 62.3759 84.5379 61.1433 86.4536 61.1433L86.4545 61.1443Z" fill="#DD534E"/>
<path d="M104.502 59.513C103.101 59.513 102.002 59.9338 101.228 60.7638V56.0803C101.228 55.8641 101.184 55.7181 101.091 55.6355C101.002 55.5567 100.857 55.5183 100.646 55.5183H99.8024C99.5924 55.5183 99.4463 55.5567 99.3576 55.6364C99.265 55.7191 99.2201 55.8651 99.2201 56.0813V67.5168C99.2201 69.0703 99.6649 70.2846 100.541 71.1282C101.416 71.9698 102.664 72.3963 104.25 72.3963C105.837 72.3963 107.084 71.9332 107.952 71.0215C108.819 70.1107 109.258 68.8157 109.258 67.1728V64.624C109.258 62.9822 108.845 61.7063 108.032 60.833C107.217 59.9578 106.029 59.5139 104.5 59.5139L104.502 59.513ZM104.228 61.2817C106.262 61.2817 107.251 62.4951 107.251 64.9901V66.9192C107.251 69.4142 106.27 70.6276 104.251 70.6276C102.217 70.6276 101.228 69.4142 101.228 66.9192V64.9901C101.228 63.7805 101.485 62.8477 101.992 62.2193C102.494 61.5968 103.246 61.2817 104.228 61.2817Z" fill="#DD534E"/>
<path d="M116.408 59.513C115.503 59.513 114.739 59.6311 114.135 59.8646C113.529 60.099 113.017 60.4564 112.611 60.9272C112.424 61.1472 112.265 61.3902 112.14 61.6496C112.012 61.9148 111.948 62.1655 111.948 62.3952C111.948 62.5969 111.992 62.7343 112.085 62.8169C112.174 62.8967 112.326 62.9351 112.553 62.9351H113.374C113.592 62.9351 113.72 62.9043 113.789 62.8352C113.824 62.7996 113.883 62.7247 113.993 62.4816C114.195 62.0003 114.476 61.6583 114.826 61.4642C115.182 61.2673 115.714 61.1673 116.408 61.1673C117.258 61.1673 117.875 61.347 118.242 61.7015C118.606 62.0551 118.791 62.644 118.791 63.452V64.6894C118.361 64.6356 117.923 64.5943 117.487 64.5654C117.015 64.5347 116.622 64.5193 116.316 64.5193C114.642 64.5193 113.393 64.844 112.601 65.4839C111.804 66.1295 111.4 67.1604 111.4 68.5496C111.4 69.8629 111.785 70.8294 112.546 71.4212C113.298 72.0072 114.475 72.3041 116.042 72.3041H116.385C117.911 72.3041 119.04 71.9582 119.742 71.2761C120.444 70.593 120.8 69.5285 120.8 68.1134V63.4058C120.8 62.0339 120.45 61.03 119.761 60.4228C119.076 59.8194 117.948 59.513 116.408 59.513ZM116.385 70.5585H116.18C115.159 70.5585 114.44 70.3961 114.043 70.0762C113.652 69.762 113.454 69.2403 113.454 68.5265C113.454 67.706 113.668 67.1142 114.088 66.7693C114.516 66.4187 115.312 66.2419 116.454 66.2419C116.725 66.2419 117.087 66.2611 117.529 66.2986C117.947 66.3341 118.371 66.3803 118.792 66.436V67.9068C118.792 68.8407 118.605 69.5247 118.237 69.9388C117.871 70.35 117.248 70.5585 116.385 70.5585Z" fill="#DD534E"/>
<path d="M128.674 59.513C127.273 59.513 126.174 59.9338 125.4 60.7638V56.0803C125.4 55.8641 125.355 55.7181 125.263 55.6355C125.174 55.5567 125.029 55.5183 124.818 55.5183H123.974C123.764 55.5183 123.618 55.5567 123.53 55.6364C123.437 55.7191 123.392 55.8651 123.392 56.0813V67.5168C123.392 69.0703 123.837 70.2846 124.713 71.1282C125.588 71.9698 126.836 72.3963 128.422 72.3963C130.009 72.3963 131.256 71.9332 132.124 71.0215C132.991 70.1107 133.43 68.8157 133.43 67.1728V64.624C133.43 62.9822 133.017 61.7063 132.204 60.833C131.389 59.9578 130.201 59.5139 128.672 59.5139L128.674 59.513ZM128.4 61.2817C130.434 61.2817 131.423 62.4951 131.423 64.9901V66.9192C131.423 69.4142 130.442 70.6276 128.423 70.6276C126.389 70.6276 125.4 69.4142 125.4 66.9192V64.9901C125.4 63.7805 125.657 62.8477 126.164 62.2193C126.666 61.5968 127.418 61.2817 128.4 61.2817Z" fill="#DD534E"/>
<path d="M137.356 59.8348H136.512C136.301 59.8348 136.156 59.8732 136.067 59.953C135.974 60.0356 135.93 60.1807 135.93 60.3978V71.5115C135.93 71.7286 135.974 71.8746 136.067 71.9563C136.156 72.036 136.301 72.0745 136.512 72.0745H137.356C137.567 72.0745 137.712 72.036 137.8 71.9563C137.893 71.8737 137.938 71.7286 137.938 71.5115V60.3978C137.938 60.1816 137.893 60.0356 137.8 59.953C137.712 59.8732 137.567 59.8348 137.356 59.8348Z" fill="#DD534E"/>
<path d="M136.945 55.2887C136.571 55.2887 136.268 55.3905 136.044 55.5903C135.817 55.794 135.701 56.0668 135.701 56.4021V56.7691C135.701 57.1198 135.817 57.4013 136.044 57.604C136.267 57.8038 136.571 57.9057 136.945 57.9057C137.334 57.9057 137.648 57.8048 137.879 57.6059C138.114 57.4023 138.234 57.1208 138.234 56.7691V56.4021C138.234 56.0659 138.114 55.7921 137.879 55.5884C137.648 55.3886 137.334 55.2877 136.945 55.2877V55.2887Z" fill="#DD534E"/>
<path d="M145.282 59.513C143.691 59.513 142.459 60.0241 141.621 61.0309C140.788 62.033 140.365 63.4875 140.365 65.3571V67.0797C140.365 68.7677 140.793 70.0887 141.636 71.0071C142.48 71.9284 143.7 72.3954 145.259 72.3954C146.043 72.3954 146.774 72.2695 147.428 72.0216C148.087 71.7728 148.619 71.4231 149.01 70.9831C149.228 70.7323 149.425 70.4316 149.595 70.0886C149.771 69.7341 149.857 69.4488 149.857 69.2163C149.857 69.005 149.813 68.8791 149.717 68.8186C149.637 68.7677 149.494 68.7456 149.253 68.7456H148.431C148.237 68.7456 148.113 68.7696 148.04 68.8224C147.993 68.857 147.923 68.931 147.812 69.1981C147.4 70.1607 146.588 70.6286 145.329 70.6286C143.34 70.6286 142.374 69.4229 142.374 66.9432V66.6108H149.504C149.714 66.6108 149.86 66.5724 149.948 66.4927C150.041 66.41 150.086 66.265 150.086 66.0478V64.8767C150.086 61.3191 148.47 59.5149 145.284 59.5149L145.282 59.513ZM145.282 61.1443C146.232 61.1443 146.936 61.4546 147.377 62.0656C147.814 62.6718 148.041 63.6278 148.053 64.9094H142.373C142.413 62.3759 143.365 61.1433 145.281 61.1433L145.282 61.1443Z" fill="#DD534E"/>
<path d="M158.369 65.2802L156.497 64.797C156.062 64.6913 155.695 64.577 155.406 64.4578C155.121 64.3397 154.888 64.2061 154.714 64.0611C154.545 63.9189 154.425 63.7623 154.355 63.5951C154.285 63.4251 154.249 63.2137 154.249 62.9687C154.249 62.3836 154.442 61.9446 154.838 61.6256C155.236 61.3057 155.809 61.1433 156.542 61.1433C158.156 61.1433 159.027 61.6785 159.201 62.7804C159.238 62.9802 159.293 63.1032 159.377 63.1657C159.458 63.2271 159.6 63.256 159.827 63.256H160.488C160.714 63.256 160.867 63.2175 160.956 63.1378C161.048 63.0552 161.093 62.9178 161.093 62.716C161.093 61.9407 160.807 61.2596 160.244 60.6937C159.512 59.9107 158.32 59.513 156.702 59.513C155.36 59.513 154.287 59.8339 153.512 60.466C152.73 61.1039 152.333 61.9763 152.333 63.06V63.1753C152.333 64.0245 152.564 64.7153 153.021 65.2303C153.473 65.7404 154.188 66.1333 155.148 66.3985L157.178 66.9269C157.916 67.12 158.441 67.3765 158.737 67.6897C159.03 67.9972 159.177 68.4333 159.177 68.9848C159.177 70.1665 158.359 70.741 156.679 70.741C155.835 70.741 155.193 70.6074 154.771 70.3432C154.356 70.0848 154.079 69.6582 153.951 69.0809C153.915 68.882 153.852 68.7542 153.758 68.6908C153.671 68.6332 153.53 68.6053 153.324 68.6053H152.663C152.438 68.6053 152.284 68.6437 152.195 68.7235C152.103 68.8061 152.058 68.9444 152.058 69.1452C152.058 69.9522 152.368 70.6574 152.98 71.2406C153.786 72.0063 155.046 72.3944 156.723 72.3944C159.683 72.3944 161.184 71.2012 161.184 68.8464V68.7321C161.184 66.9106 160.237 65.75 158.369 65.2802Z" fill="#DD534E"/>
<path d="M174.361 70.2606H173.289C172.854 70.2606 172.539 70.1386 172.354 69.8984C172.165 69.6506 172.068 69.2202 172.068 68.6187V61.5574H174.315C174.518 61.5574 174.65 61.5142 174.716 61.4248C174.777 61.3432 174.806 61.2067 174.806 60.9954V60.3978C174.806 60.1864 174.777 60.05 174.717 59.9684C174.649 59.8771 174.522 59.8348 174.315 59.8348H172.068V57.0218C172.068 56.8056 172.023 56.6596 171.931 56.577C171.842 56.4982 171.697 56.4598 171.486 56.4598H170.642C170.432 56.4598 170.286 56.4982 170.197 56.578C170.105 56.6606 170.06 56.8056 170.06 57.0228V59.8358H168.68C168.473 59.8358 168.346 59.8781 168.278 59.9693C168.218 60.051 168.189 60.1874 168.189 60.3988V60.9963C168.189 61.2077 168.218 61.3441 168.278 61.4258C168.345 61.5151 168.476 61.5584 168.68 61.5584H170.06V68.9185C170.06 69.9974 170.308 70.8015 170.797 71.3097C171.286 71.818 172.071 72.0764 173.13 72.0764H174.362C174.565 72.0764 174.697 72.0332 174.764 71.9429C174.825 71.8612 174.852 71.7248 174.852 71.5134V70.8246C174.852 70.6132 174.825 70.4768 174.764 70.3951C174.697 70.3058 174.565 70.2625 174.362 70.2625L174.361 70.2606Z" fill="#DD534E"/>
<path d="M182.49 59.513C181.749 59.513 181.067 59.6513 180.464 59.9242C179.947 60.1576 179.498 60.4785 179.126 60.8791V56.0803C179.126 55.8641 179.081 55.7181 178.988 55.6355C178.9 55.5567 178.754 55.5173 178.544 55.5173H177.7C177.49 55.5173 177.344 55.5557 177.255 55.6355C177.162 55.7181 177.117 55.8632 177.117 56.0803V71.5115C177.117 71.7286 177.162 71.8746 177.255 71.9563C177.344 72.036 177.489 72.0745 177.7 72.0745H178.544C178.754 72.0745 178.9 72.036 178.988 71.9563C179.081 71.8737 179.126 71.7286 179.126 71.5115V64.4626C179.126 63.5144 179.389 62.7458 179.908 62.179C180.426 61.6141 181.133 61.3278 182.011 61.3278C182.889 61.3278 183.532 61.544 183.92 61.9715C184.312 62.4019 184.509 63.1003 184.509 64.0486V71.5115C184.509 71.7286 184.554 71.8746 184.647 71.9563C184.735 72.036 184.88 72.0745 185.091 72.0745H185.935C186.146 72.0745 186.291 72.036 186.38 71.9563C186.473 71.8737 186.517 71.7286 186.517 71.5115V63.6585C186.517 62.3202 186.17 61.2836 185.485 60.5784C184.798 59.8723 183.791 59.5139 182.491 59.5139L182.49 59.513Z" fill="#DD534E"/>
<path d="M193.895 59.513C192.304 59.513 191.072 60.0241 190.234 61.0309C189.401 62.033 188.978 63.4875 188.978 65.3571V67.0797C188.978 68.7677 189.406 70.0887 190.249 71.0071C191.093 71.9284 192.313 72.3954 193.872 72.3954C194.657 72.3954 195.387 72.2695 196.042 72.0216C196.7 71.7728 197.232 71.4231 197.623 70.9831C197.841 70.7323 198.038 70.4316 198.208 70.0886C198.384 69.7341 198.47 69.4488 198.47 69.2163C198.47 69.005 198.426 68.8791 198.33 68.8186C198.25 68.7677 198.107 68.7456 197.866 68.7456H197.044C196.85 68.7456 196.726 68.7696 196.653 68.8224C196.606 68.857 196.536 68.931 196.425 69.1981C196.013 70.1607 195.201 70.6286 193.942 70.6286C191.953 70.6286 190.987 69.4229 190.987 66.9432V66.6108H198.117C198.327 66.6108 198.473 66.5724 198.561 66.4927C198.654 66.41 198.699 66.265 198.699 66.0478V64.8767C198.699 61.3191 197.083 59.5149 193.897 59.5149L193.895 59.513ZM193.895 61.1443C194.845 61.1443 195.549 61.4546 195.99 62.0656C196.427 62.6718 196.654 63.6278 196.666 64.9094H190.986C191.027 62.3759 191.978 61.1433 193.894 61.1433L193.895 61.1443Z" fill="#DD534E"/>
<path d="M220.794 59.8348H219.858C219.661 59.8348 219.521 59.8781 219.432 59.9684C219.349 60.0519 219.285 60.1912 219.233 60.3949L216.799 69.9513L214.437 60.8791C214.385 60.6543 214.306 60.5035 214.193 60.418C214.085 60.3354 213.933 60.294 213.744 60.294H212.649C212.459 60.294 212.308 60.3354 212.199 60.418C212.087 60.5025 212.008 60.6534 211.956 60.8772L209.681 69.9513L207.158 60.3901C207.091 60.1711 207.017 60.0279 206.934 59.953C206.846 59.8732 206.716 59.8348 206.535 59.8348H205.577C205.17 59.8348 205.109 60.0721 205.109 60.2133C205.109 60.2527 205.118 60.3248 205.182 60.539L208.171 71.4952C208.239 71.7161 208.32 71.8631 208.421 71.9467C208.523 72.0312 208.672 72.0735 208.863 72.0735H210.369C210.559 72.0735 210.709 72.0322 210.818 71.9496C210.931 71.865 211.011 71.7142 211.062 71.4903L213.175 63.0907L215.288 71.4875C215.34 71.7132 215.42 71.8641 215.532 71.9486C215.64 72.0312 215.791 72.0726 215.981 72.0726H217.487C217.678 72.0726 217.827 72.0303 217.929 71.9457C218.03 71.8622 218.112 71.7152 218.179 71.4913L221.19 60.54C221.255 60.3248 221.263 60.2518 221.263 60.2124C221.263 60.0712 221.201 59.8339 220.795 59.8339L220.794 59.8348Z" fill="#DD534E"/>
<path d="M227.298 59.513C226.393 59.513 225.628 59.6311 225.025 59.8646C224.419 60.099 223.906 60.4564 223.501 60.9272C223.314 61.1472 223.155 61.3902 223.03 61.6496C222.902 61.9148 222.837 62.1655 222.837 62.3952C222.837 62.5969 222.882 62.7343 222.975 62.8169C223.064 62.8967 223.216 62.9351 223.443 62.9351H224.264C224.483 62.9351 224.611 62.9043 224.68 62.8352C224.715 62.7996 224.774 62.7247 224.884 62.4816C225.086 62.0003 225.367 61.6583 225.717 61.4642C226.073 61.2673 226.605 61.1673 227.299 61.1673C228.149 61.1673 228.766 61.347 229.132 61.7015C229.498 62.0551 229.683 62.644 229.683 63.452V64.6894C229.253 64.6356 228.815 64.5943 228.378 64.5654C227.907 64.5347 227.514 64.5193 227.208 64.5193C225.534 64.5193 224.284 64.844 223.493 65.4839C222.696 66.1295 222.291 67.1604 222.291 68.5496C222.291 69.8629 222.677 70.8294 223.438 71.4212C224.191 72.0072 225.367 72.3041 226.934 72.3041H227.276C228.802 72.3041 229.931 71.9582 230.633 71.2761C231.334 70.593 231.691 69.5285 231.691 68.1134V63.4058C231.691 62.0339 231.341 61.03 230.652 60.4228C229.967 59.8194 228.838 59.513 227.299 59.513H227.298ZM227.275 70.5585H227.07C226.048 70.5585 225.33 70.3961 224.933 70.0762C224.542 69.762 224.344 69.2403 224.344 68.5265C224.344 67.706 224.557 67.1142 224.978 66.7693C225.406 66.4187 226.202 66.2419 227.344 66.2419C227.615 66.2419 227.977 66.2611 228.418 66.2986C228.837 66.3341 229.261 66.3803 229.682 66.436V67.9068C229.682 68.8407 229.495 69.5247 229.127 69.9388C228.761 70.35 228.139 70.5585 227.275 70.5585Z" fill="#DD534E"/>
<path d="M243.057 59.8348H242.098C241.916 59.8348 241.788 59.8752 241.706 59.9568C241.634 60.0298 241.561 60.1653 241.476 60.3863L238.535 68.9771L235.372 60.3834C235.289 60.1663 235.216 60.0308 235.143 59.9568C235.061 59.8752 234.933 59.8348 234.751 59.8348H233.747C233.34 59.8348 233.279 60.0721 233.279 60.2133C233.279 60.2537 233.287 60.3248 233.354 60.5256L237.539 71.6277L237.277 72.3944C237.143 72.77 237.003 73.0804 236.863 73.3177C236.726 73.5492 236.57 73.7327 236.399 73.8614C236.229 73.9892 236.033 74.0757 235.814 74.1179C235.587 74.1621 235.314 74.1852 235.001 74.1852H234.727C234.523 74.1852 234.392 74.2284 234.325 74.3187C234.265 74.4004 234.236 74.5368 234.236 74.7482V75.437C234.236 75.6484 234.265 75.7848 234.325 75.8665C234.392 75.9568 234.523 76 234.727 76H235.252C235.698 76 236.108 75.9568 236.473 75.8713C236.843 75.7838 237.19 75.6157 237.504 75.3698C237.817 75.1257 238.113 74.777 238.384 74.3322C238.654 73.8902 238.914 73.308 239.158 72.6019L243.447 60.5208C243.512 60.3238 243.521 60.2527 243.521 60.2124C243.521 60.0712 243.46 59.8339 243.053 59.8339L243.057 59.8348Z" fill="#DD534E"/>
<path d="M255.515 70.2606H254.443C254.008 70.2606 253.693 70.1386 253.509 69.8984C253.319 69.6506 253.222 69.2202 253.222 68.6187V61.5574H255.469C255.672 61.5574 255.804 61.5142 255.87 61.4248C255.931 61.3432 255.96 61.2067 255.96 60.9954V60.3978C255.96 60.1864 255.931 60.05 255.871 59.9684C255.803 59.8771 255.676 59.8348 255.469 59.8348H253.222V57.0218C253.222 56.8056 253.177 56.6596 253.085 56.577C252.996 56.4982 252.851 56.4598 252.64 56.4598H251.796C251.586 56.4598 251.44 56.4982 251.351 56.578C251.259 56.6606 251.214 56.8056 251.214 57.0228V59.8358H249.834C249.627 59.8358 249.5 59.8781 249.432 59.9693C249.372 60.051 249.343 60.1874 249.343 60.3988V60.9963C249.343 61.2077 249.372 61.3441 249.432 61.4258C249.499 61.5151 249.63 61.5584 249.834 61.5584H251.214V68.9185C251.214 69.9974 251.462 70.8015 251.951 71.3097C252.441 71.818 253.225 72.0764 254.284 72.0764H255.516C255.719 72.0764 255.851 72.0332 255.918 71.9429C255.979 71.8612 256.007 71.7248 256.007 71.5134V70.8246C256.007 70.6132 255.979 70.4768 255.918 70.3951C255.851 70.3058 255.719 70.2625 255.516 70.2625L255.515 70.2606Z" fill="#DD534E"/>
<path d="M263.645 59.513C262.903 59.513 262.221 59.6513 261.618 59.9242C261.101 60.1576 260.652 60.4785 260.28 60.8791V56.0803C260.28 55.8641 260.235 55.7181 260.142 55.6355C260.054 55.5567 259.909 55.5173 259.698 55.5173H258.854C258.644 55.5173 258.498 55.5557 258.409 55.6355C258.317 55.7181 258.272 55.8632 258.272 56.0803V71.5115C258.272 71.7286 258.317 71.8746 258.409 71.9563C258.498 72.036 258.643 72.0745 258.854 72.0745H259.698C259.909 72.0745 260.054 72.036 260.142 71.9563C260.235 71.8737 260.28 71.7286 260.28 71.5115V64.4626C260.28 63.5144 260.543 62.7458 261.063 62.179C261.58 61.6141 262.287 61.3278 263.165 61.3278C264.044 61.3278 264.686 61.544 265.074 61.9715C265.466 62.4019 265.663 63.1003 265.663 64.0486V71.5115C265.663 71.7286 265.708 71.8746 265.801 71.9563C265.89 72.036 266.035 72.0745 266.246 72.0745H267.089C267.3 72.0745 267.445 72.036 267.534 71.9563C267.627 71.8737 267.672 71.7286 267.672 71.5115V63.6585C267.672 62.3202 267.324 61.2836 266.639 60.5784C265.953 59.8723 264.946 59.5139 263.646 59.5139L263.645 59.513Z" fill="#DD534E"/>
<path d="M275.048 59.513C273.457 59.513 272.226 60.0241 271.388 61.0309C270.554 62.033 270.131 63.4875 270.131 65.3571V67.0797C270.131 68.7677 270.559 70.0887 271.402 71.0071C272.247 71.9284 273.465 72.3954 275.025 72.3954C275.81 72.3954 276.54 72.2695 277.195 72.0216C277.853 71.7728 278.385 71.4231 278.775 70.9831C278.994 70.7323 279.191 70.4316 279.361 70.0886C279.536 69.7341 279.622 69.4488 279.622 69.2163C279.622 69.005 279.578 68.8791 279.483 68.8186C279.403 68.7677 279.259 68.7456 279.018 68.7456H278.197C278.003 68.7456 277.879 68.7696 277.806 68.8224C277.758 68.857 277.688 68.931 277.578 69.1981C277.165 70.1607 276.353 70.6286 275.094 70.6286C273.106 70.6286 272.14 69.4229 272.14 66.9432V66.6108H279.269C279.479 66.6108 279.625 66.5724 279.714 66.4927C279.806 66.41 279.851 66.265 279.851 66.0478V64.8767C279.851 61.3191 278.235 59.5149 275.049 59.5149L275.048 59.513ZM275.048 61.1443C275.998 61.1443 276.702 61.4546 277.144 62.0656C277.581 62.6718 277.809 63.6278 277.82 64.9094H272.142C272.181 62.3759 273.132 61.1433 275.049 61.1433L275.048 61.1443Z" fill="#DD534E"/>
<path d="M290.894 59.8348H289.936C289.753 59.8348 289.625 59.8752 289.543 59.9568C289.471 60.0298 289.398 60.1653 289.313 60.3863L286.372 68.9771L283.209 60.3834C283.126 60.1663 283.054 60.0308 282.98 59.9568C282.898 59.8752 282.77 59.8348 282.588 59.8348H281.584C281.177 59.8348 281.116 60.0721 281.116 60.2133C281.116 60.2537 281.124 60.3248 281.191 60.5256L285.376 71.6277L285.114 72.3944C284.98 72.77 284.84 73.0804 284.7 73.3177C284.564 73.5492 284.407 73.7327 284.236 73.8614C284.066 73.9892 283.87 74.0757 283.651 74.1179C283.424 74.1621 283.151 74.1852 282.838 74.1852H282.564C282.361 74.1852 282.229 74.2284 282.162 74.3187C282.102 74.4004 282.073 74.5368 282.073 74.7482V75.437C282.073 75.6484 282.102 75.7848 282.162 75.8665C282.229 75.9568 282.361 76 282.564 76H283.089C283.535 76 283.945 75.9568 284.31 75.8713C284.68 75.7838 285.027 75.6157 285.341 75.3698C285.655 75.1257 285.95 74.777 286.222 74.3322C286.491 73.8902 286.751 73.308 286.995 72.6019L291.284 60.5208C291.349 60.3238 291.358 60.2527 291.358 60.2124C291.358 60.0712 291.297 59.8339 290.89 59.8339L290.894 59.8348Z" fill="#DD534E"/>
<path d="M302.714 59.513C301.809 59.513 301.044 59.6311 300.441 59.8646C299.835 60.099 299.322 60.4564 298.916 60.9272C298.729 61.1472 298.571 61.3902 298.446 61.6496C298.318 61.9148 298.253 62.1655 298.253 62.3952C298.253 62.5969 298.298 62.7343 298.39 62.8169C298.478 62.8967 298.631 62.9351 298.857 62.9351H299.678C299.898 62.9351 300.026 62.9043 300.093 62.8361C300.129 62.8006 300.188 62.7256 300.298 62.4816C300.501 62.0003 300.781 61.6583 301.131 61.4642C301.487 61.2673 302.019 61.1673 302.713 61.1673C303.563 61.1673 304.18 61.347 304.546 61.7015C304.911 62.0551 305.096 62.644 305.096 63.452V64.6894C304.666 64.6356 304.227 64.5943 303.791 64.5654C303.32 64.5347 302.925 64.5193 302.621 64.5193C300.947 64.5193 299.697 64.844 298.906 65.4839C298.109 66.1285 297.704 67.1604 297.704 68.5496C297.704 69.8629 298.09 70.8294 298.851 71.4212C299.603 72.0072 300.78 72.3041 302.347 72.3041H302.689C304.215 72.3041 305.344 71.9582 306.046 71.2761C306.747 70.593 307.103 69.5285 307.103 68.1134V63.4058C307.103 62.0339 306.754 61.03 306.065 60.4228C305.379 59.8194 304.251 59.513 302.712 59.513H302.714ZM302.691 70.5585H302.485C301.465 70.5585 300.745 70.3961 300.348 70.0762C299.958 69.761 299.759 69.2403 299.759 68.5265C299.759 67.706 299.973 67.1152 300.394 66.7693C300.822 66.4187 301.618 66.2419 302.759 66.2419C303.03 66.2419 303.392 66.2611 303.834 66.2986C304.252 66.3341 304.677 66.3803 305.098 66.436V67.9068C305.098 68.8407 304.911 69.5247 304.542 69.9388C304.177 70.35 303.553 70.5585 302.691 70.5585Z" fill="#DD534E"/>
<path d="M315.282 59.8348H314.986C314.237 59.8348 313.554 60.0452 312.953 60.4612C312.474 60.7927 312.089 61.2115 311.802 61.7102V60.3968C311.802 60.1807 311.757 60.0356 311.665 59.952C311.576 59.8732 311.431 59.8339 311.22 59.8339H310.422C310.211 59.8339 310.066 59.8723 309.977 59.952C309.885 60.0347 309.84 60.1807 309.84 60.3968V71.5105C309.84 71.7267 309.885 71.8727 309.977 71.9553C310.066 72.0351 310.212 72.0735 310.422 72.0735H311.266C311.476 72.0735 311.622 72.0351 311.711 71.9553C311.802 71.8727 311.847 71.7277 311.847 71.5105V65.6549C311.847 65.1015 311.915 64.5818 312.049 64.11C312.182 63.6412 312.376 63.2271 312.626 62.8794C312.875 62.5335 313.174 62.2616 313.517 62.0714C313.856 61.8821 314.251 61.7861 314.687 61.7861H315.281C315.485 61.7861 315.616 61.7419 315.681 61.6525C315.743 61.5718 315.771 61.4344 315.771 61.2231V60.3968C315.771 60.1855 315.743 60.0491 315.682 59.9674C315.616 59.8761 315.488 59.8339 315.281 59.8339L315.282 59.8348Z" fill="#DD534E"/>
<path d="M322.197 59.513C320.606 59.513 319.374 60.0241 318.536 61.0309C317.703 62.033 317.28 63.4885 317.28 65.3571V67.0797C317.28 68.7677 317.708 70.0887 318.551 71.0071C319.395 71.9284 320.614 72.3954 322.174 72.3954C322.959 72.3954 323.689 72.2695 324.343 72.0216C325.001 71.7728 325.533 71.4231 325.924 70.9831C326.143 70.7314 326.339 70.4307 326.509 70.0886C326.686 69.7341 326.771 69.4478 326.771 69.2163C326.771 69.005 326.727 68.8791 326.632 68.8186C326.551 68.7677 326.408 68.7456 326.167 68.7456H325.345C325.151 68.7456 325.027 68.7696 324.955 68.8224C324.883 68.8743 324.812 68.9905 324.725 69.199C324.313 70.1617 323.501 70.6295 322.242 70.6295C320.254 70.6295 319.288 69.4238 319.288 66.9442V66.6118H326.417C326.627 66.6118 326.773 66.5734 326.862 66.4936C326.954 66.411 326.999 66.2659 326.999 66.0488V64.8777C326.999 61.3201 325.383 59.5159 322.197 59.5159V59.513ZM322.197 61.1443C323.147 61.1443 323.851 61.4546 324.292 62.0656C324.729 62.6718 324.956 63.6278 324.968 64.9094H319.289C319.329 62.3759 320.28 61.1443 322.197 61.1443Z" fill="#DD534E"/>
</svg>